<svg width="150" height="150" viewBox="0 0 150 150" fill="none" xmlns="http://www.w3.org/2000/svg">
<rect width="150" height="150" fill="#F7931A"/>
<path d="M75 35C97.0914 35 115 52.9086 115 75C115 97.0914 97.0914 115 75 115C52.9086 115 35 97.0914 35 75C35 52.9086 52.9086 35 75 35ZM75 38.9023C55.0639 38.9023 38.9024 55.064 38.9023 75L38.9141 75.9316C39.4004 95.1275 54.8724 110.6 74.0684 111.086L75 111.098C94.6245 111.098 110.592 95.437 111.086 75.9316L111.098 75C111.098 55.3755 95.437 39.4083 75.9316 38.9141L75 38.9023ZM75 40.1221C94.2624 40.1222 109.878 55.7375 109.878 75C109.878 94.2624 94.2624 109.878 75 109.878C55.7375 109.878 40.1221 94.2625 40.1221 75C40.1221 55.7375 55.7375 40.1221 75 40.1221ZM65.8359 94.8076L67.3809 101.495L74.0742 99.9502L72.5303 93.2617L65.8359 94.8076ZM84.374 83.4834L77.6797 85.0283L70.9863 86.5742L72.5303 93.2617L79.2236 91.7168L80.7686 98.4043L87.4619 96.8594L85.918 90.1709L92.6113 88.626L91.0674 81.9375L84.374 83.4834ZM69.96 51.5879L71.5039 58.2754L64.8096 59.8213L63.2656 53.1328L56.5723 54.6787L58.1162 61.3662L51.4219 62.9121L52.9658 69.5996L54.5107 76.2881L56.0547 82.9766L57.5986 89.6641L59.1426 96.3525L65.8359 94.8076L62.748 81.4307L61.2041 74.7432L59.6602 68.0547L66.3535 66.5088L73.0479 64.9639L79.7412 63.4189L86.4355 61.873L84.8916 55.1846L78.1973 56.7305L76.6533 50.042L69.96 51.5879ZM89.5234 75.249L91.0674 81.9375L97.7617 80.3926L96.2178 73.7041L89.5234 75.249ZM81.2852 70.1064L74.5918 71.6523L67.8984 73.1973L69.4424 79.8857L76.1357 78.3398L82.8301 76.7949L89.5234 75.249L87.9795 68.5615L81.2852 70.1064ZM86.4355 61.873L87.9795 68.5615L94.6738 67.0156L93.1289 60.3281L86.4355 61.873Z" fill="white"/>
</svg>
