<svg width="1107" height="278" viewBox="0 0 1107 278" fill="none" xmlns="http://www.w3.org/2000/svg">
<path d="M139 0C215.768 0 278 62.2324 278 139C278 215.768 215.768 278 139 278C62.2324 278 0 215.768 0 139C0 62.2324 62.2324 0 139 0ZM139 13.5615C69.7222 13.5615 13.5607 69.7223 13.5605 139L13.6016 142.237C15.2916 208.943 69.056 262.708 135.762 264.398L139 264.439C207.195 264.439 262.68 210.019 264.397 142.237L264.438 139C264.438 70.8049 210.019 15.319 142.237 13.6016L139 13.5615ZM139 17.7998C205.937 17.8002 260.2 72.063 260.2 139C260.2 205.937 205.937 260.201 139 260.201C72.0627 260.201 17.799 205.937 17.7988 139C17.799 72.0627 72.0627 17.7998 139 17.7998ZM107.156 207.83L112.522 231.072L135.783 225.702L130.418 202.46L107.156 207.83ZM171.574 168.479L148.312 173.849L125.052 179.219L130.418 202.46L153.679 197.09L159.044 220.332L182.306 214.961L176.939 191.72L200.2 186.35L194.835 163.108L171.574 168.479ZM121.484 57.6416L126.85 80.8828L103.589 86.2529L98.2236 63.0117L74.9619 68.3818L80.3281 91.623L57.0664 96.9941L67.7988 143.477L78.5293 189.959L83.8955 213.201L107.156 207.83L101.791 184.589L96.4248 161.348L91.0596 138.106L85.6934 114.865L108.955 109.495L132.216 104.124L178.737 93.3838L173.372 70.1426L150.111 75.5127L144.745 52.2715L121.484 57.6416ZM189.469 139.866L194.835 163.108L218.097 157.738L212.73 134.496L189.469 139.866ZM160.843 121.996L137.581 127.366L114.32 132.736L119.687 155.978L166.208 145.237L189.469 139.866L184.104 116.626L160.843 121.996ZM178.737 93.3838L184.104 116.626L207.365 111.255L201.999 88.0137L178.737 93.3838Z" fill="black"/>
<path d="M574 39.9009H685.942C714.603 39.9009 737.421 58.1785 743.149 86.1148C744.744 93.7562 744.696 101.65 743.008 109.271C741.319 116.893 738.029 124.067 733.356 130.318C732.687 131.266 732.04 132.236 731.878 132.444C737.375 138.129 743.426 143.027 747.721 149.035C772.318 182.471 752.664 230.765 711.739 237.858C708.59 238.416 705.399 238.71 702.201 238.736C660.63 238.736 619.059 238.736 577.487 238.736C576.448 238.736 575.409 238.736 574.185 238.575L574 39.9009ZM602.407 210.061C603.492 210.061 604.185 210.199 604.878 210.199H702.894C704.076 210.227 705.259 210.149 706.427 209.968C720.423 207.403 731.047 194.117 729.869 180.715C728.46 164.863 716.774 153.772 701.346 153.772C669.614 153.772 637.896 153.772 606.195 153.772H602.407V210.061ZM602.407 124.842C602.732 124.994 603.073 125.11 603.423 125.189C631.715 125.189 660.006 125.582 688.275 125.189C692.277 125.141 696.222 124.227 699.838 122.509C703.453 120.79 706.654 118.309 709.22 115.234C711.785 112.16 713.655 108.567 714.7 104.701C715.745 100.835 715.94 96.7878 715.273 92.839C712.963 78.1198 701.554 68.5304 686.15 68.4842C659.406 68.4842 632.662 68.4842 605.941 68.4842H602.407V124.842Z" fill="black"/>
<path d="M1014.48 38C1035.92 38 1054.69 43.1892 1070.76 53.6143L1071.51 54.1064C1087.2 64.5105 1098.66 79.1408 1105.9 97.9346L1106.68 99.9736H1073.16L1072.76 99.0986C1067.49 87.6074 1059.87 78.8058 1049.92 72.6377L1049.91 72.6309C1040.16 66.4737 1028.37 63.3594 1014.48 63.3594C1001.58 63.3594 990.007 66.2757 979.727 72.084L978.735 72.6553C968.216 78.8396 959.953 87.6628 953.944 99.168L953.939 99.1768C947.944 110.474 944.918 123.825 944.918 139.279C944.918 154.539 947.941 167.894 953.939 179.383L954.51 180.437C960.466 191.245 968.539 199.63 978.735 205.624L979.727 206.195C990.007 212.004 1001.58 214.92 1014.48 214.92C1028.38 214.92 1040.17 211.897 1049.92 205.922C1059.87 199.754 1067.49 190.951 1072.76 179.46L1073.16 178.586H1106.69L1105.9 180.629C1098.55 199.536 1086.83 214.236 1070.76 224.666L1070.75 224.673L1070.75 224.672C1054.68 234.906 1035.91 240 1014.48 240C996.219 240 979.52 235.748 964.419 227.229L964.399 227.218C949.954 218.782 938.429 207.233 929.837 192.593L929.015 191.166C920.329 175.827 916 158.518 916 139.279C916 120.04 920.329 102.732 929.015 87.3926C937.687 71.8908 949.486 59.7705 964.399 51.0615L964.406 51.0576L965.827 50.2539C980.555 42.0809 996.783 38 1014.48 38ZM965.155 225.923C965.52 226.129 965.887 226.33 966.254 226.53C965.887 226.33 965.52 226.128 965.155 225.922C964.697 225.654 964.241 225.383 963.788 225.109C964.241 225.384 964.697 225.655 965.155 225.923ZM955.282 219.312C955.486 219.468 955.69 219.623 955.896 219.777C955.69 219.623 955.486 219.468 955.282 219.312ZM954.518 218.722C954.718 218.878 954.918 219.034 955.12 219.188C954.918 219.034 954.718 218.878 954.518 218.722ZM953.688 218.067C953.907 218.242 954.127 218.416 954.348 218.589C954.127 218.416 953.907 218.242 953.688 218.067ZM952.229 216.876C952.424 217.039 952.621 217.202 952.818 217.363C952.621 217.202 952.424 217.039 952.229 216.876ZM951.105 215.928C951.17 215.983 951.235 216.037 951.299 216.092C951.18 215.991 951.062 215.889 950.944 215.787L951.105 215.928ZM1048.46 208.506C1048.57 208.442 1048.69 208.379 1048.81 208.313L1048.84 208.296C1048.71 208.367 1048.58 208.436 1048.46 208.506ZM942.253 207.206C942.598 207.595 942.946 207.981 943.297 208.363L942.254 207.206C941.909 206.817 941.566 206.426 941.228 206.03L942.253 207.206ZM1051.66 206.594C1051.35 206.797 1051.03 206.998 1050.71 207.196L1051.66 206.595C1051.98 206.391 1052.29 206.185 1052.6 205.977L1051.66 206.594ZM976.972 206.315C977.291 206.511 977.613 206.703 977.937 206.894C977.607 206.699 977.279 206.503 976.953 206.304L976.972 206.315ZM938.948 203.264C939.368 203.792 939.79 204.317 940.22 204.835L939.23 203.62C939.136 203.502 939.042 203.382 938.948 203.264ZM938.097 202.174C938.206 202.316 938.315 202.459 938.426 202.601C938.315 202.459 938.206 202.316 938.097 202.174ZM1059.15 200.864C1058.85 201.13 1058.55 201.392 1058.25 201.652C1058.55 201.392 1058.85 201.13 1059.15 200.864ZM937.272 201.089C937.367 201.215 937.462 201.341 937.557 201.467C937.462 201.341 937.367 201.215 937.272 201.089ZM1059.76 200.297C1059.89 200.183 1060.01 200.069 1060.13 199.954C1060.01 200.069 1059.89 200.183 1059.76 200.297ZM1060.32 199.779C1060.41 199.69 1060.5 199.601 1060.59 199.511C1060.5 199.601 1060.41 199.69 1060.32 199.779ZM1098.7 192.495C1098.41 193.016 1098.12 193.533 1097.82 194.046L1098.26 193.274C1098.41 193.016 1098.56 192.757 1098.7 192.496V192.495ZM929.541 189.024C929.796 189.494 930.056 189.961 930.319 190.427L929.531 189.006L929.541 189.024ZM1104.16 180.955C1103.93 181.533 1103.69 182.108 1103.45 182.678L1103.81 181.82C1103.93 181.533 1104.04 181.245 1104.16 180.956V180.955ZM919.954 115.457C919.72 116.538 919.503 117.626 919.303 118.723L919.616 117.085C919.725 116.541 919.837 115.998 919.954 115.458V115.457ZM921.941 107.758C921.831 108.123 921.723 108.49 921.617 108.857C921.723 108.49 921.831 108.123 921.941 107.758ZM922.508 105.936C922.358 106.399 922.213 106.864 922.07 107.33C922.213 106.864 922.358 106.399 922.508 105.937V105.936ZM923.745 102.349C923.497 103.026 923.254 103.706 923.021 104.39L923.56 102.854C923.62 102.685 923.683 102.517 923.745 102.349ZM951.485 100.695C951.32 101.035 951.157 101.377 950.997 101.72C951.157 101.377 951.32 101.035 951.485 100.695ZM924.29 100.898C924.205 101.12 924.119 101.342 924.035 101.564C924.119 101.342 924.205 101.12 924.29 100.898ZM952.006 99.6465C951.855 99.9433 951.707 100.242 951.561 100.541C951.707 100.242 951.855 99.9433 952.006 99.6465ZM924.802 99.5938C924.721 99.7959 924.64 99.9984 924.561 100.201C924.64 99.9984 924.721 99.7959 924.802 99.5938ZM952.614 98.4727C952.432 98.8161 952.253 99.1617 952.076 99.5088L952.614 98.4736V98.4727ZM1074.12 98.4736H1104.5L1104.5 98.4727H1074.12V98.4736ZM1073.56 97.2842C1073.51 97.1665 1073.45 97.0497 1073.39 96.9326C1073.45 97.0498 1073.51 97.1665 1073.56 97.2842ZM1073.02 96.1895C1072.94 96.0277 1072.86 95.8667 1072.78 95.7061C1072.86 95.8667 1072.94 96.0277 1073.02 96.1895ZM927.044 94.4531C927.34 93.8264 927.642 93.2025 927.951 92.582C927.642 93.2025 927.34 93.8264 927.044 94.4531ZM1072.37 94.915C1072.32 94.8252 1072.27 94.735 1072.23 94.6455C1072.27 94.735 1072.32 94.8252 1072.37 94.915ZM928.739 91.041C928.654 91.2047 928.568 91.3681 928.483 91.5322C928.568 91.3681 928.654 91.2047 928.739 91.041ZM929.269 90.04C929.174 90.2154 929.08 90.3906 928.987 90.5664C929.08 90.3906 929.174 90.2154 929.269 90.04ZM929.772 89.1123C929.708 89.2293 929.644 89.3466 929.58 89.4639C929.644 89.3466 929.708 89.2293 929.772 89.1123ZM978.989 70.7773C978.844 70.8596 978.7 70.9449 978.555 71.0283C978.785 70.8959 979.016 70.7639 979.247 70.6338L978.989 70.7773ZM1015.8 61.8691C1016.18 61.8745 1016.56 61.8825 1016.94 61.8926C1016.56 61.8825 1016.18 61.8736 1015.8 61.8682L1014.48 61.8594L1015.8 61.8691ZM978.071 46.1406C975.118 47.2957 972.22 48.602 969.378 50.0586L970.804 49.3438C973.665 47.9374 976.581 46.6811 979.553 45.5762L978.071 46.1406ZM985.338 43.6367C985.013 43.7339 984.69 43.8349 984.367 43.9355C984.69 43.8349 985.013 43.7339 985.338 43.6367ZM986.601 43.2686C986.338 43.3434 986.076 43.421 985.813 43.498C986.076 43.421 986.338 43.3434 986.601 43.2686ZM987.955 42.8936C987.761 42.9456 987.568 43.0005 987.375 43.0537C987.568 43.0005 987.761 42.9456 987.955 42.8936ZM989.393 42.5195C989.09 42.5956 988.789 42.6749 988.488 42.7539C988.789 42.6749 989.09 42.5956 989.393 42.5195ZM992.062 41.8877C991.195 42.0798 990.333 42.2838 989.476 42.499C990.333 42.2837 991.195 42.0798 992.062 41.8877ZM993.301 41.6211C993.039 41.6755 992.778 41.7326 992.518 41.7891C992.821 41.7233 993.124 41.6576 993.429 41.5947L993.301 41.6211ZM1002.88 40.1143C1001.8 40.2314 1000.72 40.366 999.652 40.5166L1001.26 40.3027C1002.34 40.1688 1003.42 40.0516 1004.51 39.9512L1002.88 40.1143ZM1009.46 39.6123C1008.35 39.6625 1007.25 39.7298 1006.15 39.8135L1007.8 39.7002C1008.9 39.6332 1010.01 39.5833 1011.12 39.5498L1009.46 39.6123ZM952.992 217.506C953.204 217.679 953.417 217.85 953.631 218.021C953.417 217.85 953.204 217.679 952.992 217.506ZM951.533 216.292C951.729 216.458 951.926 216.623 952.123 216.788C951.926 216.623 951.729 216.458 951.533 216.292ZM1057.81 202.036L1057.92 201.938C1057.99 201.884 1058.05 201.828 1058.11 201.773C1058.01 201.861 1057.91 201.949 1057.81 202.036ZM1059.21 200.806C1059.35 200.679 1059.49 200.551 1059.63 200.423C1059.49 200.551 1059.35 200.679 1059.21 200.806ZM1060.81 199.303C1060.93 199.183 1061.05 199.062 1061.17 198.941C1061.05 199.062 1060.93 199.183 1060.81 199.303ZM928.288 91.917C928.175 92.1385 928.062 92.3597 927.951 92.582C928.062 92.3597 928.175 92.1385 928.288 91.917ZM927.044 94.4531C926.947 94.6577 926.853 94.8631 926.758 95.0684C926.853 94.8631 926.947 94.6577 927.044 94.4531Z" fill="black"/>
<path d="M547.462 60.9902H545.962C535.837 60.9903 529.065 63.0414 525.217 66.7578L524.877 67.0977C521.423 70.6803 519.524 76.697 519.523 85.5332V94.0898H549V116.429H519.523V238.394H493.198V116.429H475V94.0898H493.198V85.5332C493.198 69.4945 497.271 57.4825 505.741 49.8672L506.148 49.5068C514.77 41.9969 528.15 38.3936 545.962 38.3936H547.462V60.9902ZM494.886 79.8242C494.816 80.8593 494.767 81.9157 494.736 82.9932C494.767 81.9157 494.816 80.8593 494.886 79.8242ZM494.986 78.502C494.98 78.5805 494.975 78.6594 494.969 78.7383C494.975 78.6594 494.98 78.5805 494.986 78.502ZM495.118 77.124C495.101 77.2861 495.087 77.4491 495.071 77.6123C495.087 77.4491 495.101 77.2861 495.118 77.124ZM495.271 75.8027C495.232 76.1201 495.196 76.4399 495.16 76.7617C495.196 76.4399 495.232 76.1201 495.271 75.8027ZM495.443 74.5361C495.413 74.7453 495.386 74.9558 495.357 75.167C495.386 74.9558 495.413 74.7453 495.443 74.5361ZM495.635 73.3115C495.601 73.5132 495.571 73.7163 495.539 73.9199C495.571 73.7163 495.601 73.5132 495.635 73.3115ZM495.854 72.0781C495.834 72.1845 495.816 72.2915 495.797 72.3984C495.816 72.2915 495.834 72.1845 495.854 72.0781ZM496.099 70.8623C496.06 71.0459 496.024 71.2307 495.986 71.416C496.024 71.2307 496.06 71.0459 496.099 70.8623ZM496.369 69.6543C496.323 69.8506 496.28 70.0487 496.235 70.2471C496.28 70.0487 496.323 69.8506 496.369 69.6543ZM496.655 68.5098C496.603 68.7107 496.552 68.913 496.502 69.1162C496.552 68.913 496.603 68.7107 496.655 68.5098ZM496.978 67.3408C496.916 67.5545 496.857 67.77 496.798 67.9863C496.857 67.77 496.916 67.5545 496.978 67.3408ZM523.089 66.8457C523.114 66.8158 523.141 66.7875 523.166 66.7578C523.141 66.7875 523.114 66.8158 523.089 66.8457ZM497.31 66.2451C497.243 66.4565 497.179 66.6697 497.114 66.8838C497.179 66.6697 497.243 66.4565 497.31 66.2451ZM523.43 66.4521C523.361 66.529 523.294 66.608 523.227 66.6865C523.298 66.6036 523.369 66.5205 523.441 66.4395L523.43 66.4521ZM498.092 63.9863C498.05 64.0973 498.008 64.2085 497.967 64.3203C498.008 64.2085 498.05 64.0973 498.092 63.9863ZM498.268 63.5312C498.22 63.6525 498.173 63.7742 498.126 63.8965C498.173 63.7742 498.22 63.6525 498.268 63.5312ZM498.463 63.0439C498.428 63.129 498.394 63.2142 498.359 63.2998C498.394 63.2142 498.428 63.129 498.463 63.0439ZM498.697 62.4805C498.651 62.5898 498.604 62.6994 498.559 62.8096C498.604 62.6994 498.651 62.5898 498.697 62.4805ZM498.874 62.0693C498.849 62.1271 498.824 62.1852 498.799 62.2432C498.824 62.1852 498.849 62.1271 498.874 62.0693ZM499.11 61.5449C499.077 61.6186 499.043 61.6925 499.01 61.7666C499.043 61.6925 499.077 61.6186 499.11 61.5449ZM499.586 60.5449C499.539 60.6394 499.492 60.7339 499.446 60.8291C499.492 60.7339 499.539 60.6394 499.586 60.5449ZM499.83 60.0615C499.779 60.1611 499.728 60.261 499.678 60.3613C499.728 60.261 499.779 60.1611 499.83 60.0615ZM500.054 59.6338C500.014 59.7078 499.975 59.782 499.937 59.8564C499.975 59.782 500.014 59.7078 500.054 59.6338ZM500.292 59.1914C500.253 59.2628 500.214 59.3344 500.175 59.4062C500.214 59.3344 500.253 59.2628 500.292 59.1914ZM501.396 57.3281C501.34 57.4146 501.285 57.5007 501.23 57.5879C501.285 57.5007 501.34 57.4146 501.396 57.3281ZM501.699 56.8594C501.637 56.953 501.575 57.0462 501.514 57.1406C501.575 57.0462 501.637 56.953 501.699 56.8594ZM502.062 56.3223C501.971 56.453 501.882 56.5843 501.793 56.7168C501.882 56.5843 501.971 56.453 502.062 56.3223ZM503.027 54.9961C503.014 55.0136 503.001 55.0313 502.987 55.0488C503.001 55.0313 503.014 55.0136 503.027 54.9961ZM503.749 54.0967C503.704 54.1503 503.66 54.2038 503.615 54.2578C503.66 54.2038 503.704 54.1503 503.749 54.0967ZM507.133 50.6377C507.008 50.7468 506.884 50.857 506.761 50.9678C507.012 50.7416 507.268 50.519 507.528 50.2998L507.133 50.6377ZM508.521 49.498C508.322 49.6525 508.125 49.8086 507.931 49.9668L508.341 49.6387C508.401 49.5915 508.461 49.5448 508.521 49.498ZM510.494 48.083C510.299 48.2125 510.106 48.344 509.915 48.4766C510.106 48.344 510.299 48.2125 510.494 48.083ZM513.979 46.043C512.812 46.6443 511.703 47.29 510.651 47.9795C511.703 47.29 512.812 46.6443 513.979 46.043ZM517.475 44.4443C517.135 44.5816 516.801 44.7228 516.47 44.8662C516.979 44.6453 517.498 44.4308 518.027 44.2246L517.475 44.4443ZM520.307 43.4023C519.723 43.5971 519.149 43.7997 518.587 44.0107L519.153 43.8027C519.913 43.5284 520.692 43.2689 521.49 43.0234L520.307 43.4023ZM524.192 42.2676C523.689 42.3958 523.191 42.5275 522.701 42.666L523.941 42.3301C524.025 42.3085 524.109 42.2889 524.192 42.2676ZM533.418 40.5869C530.995 40.8757 528.691 41.2544 526.506 41.7236C529.128 41.1605 531.922 40.728 534.887 40.4248L533.418 40.5869ZM502.23 56.0811C502.174 56.1612 502.117 56.2414 502.062 56.3223C502.117 56.2414 502.174 56.1612 502.23 56.0811ZM503.479 54.4268C503.416 54.5041 503.353 54.5811 503.291 54.6592C503.353 54.5811 503.416 54.5041 503.479 54.4268Z" fill="black"/>
<path d="M344.068 116.537C348.844 109.833 355.185 104.233 363.062 99.7344L363.963 99.2295C373.317 94.0983 383.896 91.5488 395.662 91.5488C408.685 91.5489 420.434 94.6159 430.87 100.775L431.843 101.36C441.816 107.481 449.708 115.994 455.513 126.862L456.067 127.905C461.705 138.745 464.5 151.277 464.5 165.456C464.5 179.473 461.703 192.071 456.075 203.216L455.521 204.29C449.529 215.688 441.226 224.573 430.618 230.905L430.617 230.904C420.184 237.235 408.52 240.394 395.662 240.394C383.18 240.394 372.125 237.68 362.544 232.208L362.533 232.202C354.855 227.734 348.69 222.237 344.068 215.708V238.074H317.5V44.3936H344.068V116.537ZM392.281 238.824C392.545 238.835 392.809 238.843 393.073 238.852C392.809 238.843 392.545 238.835 392.281 238.824ZM391.179 238.771C391.423 238.784 391.667 238.794 391.912 238.806C391.667 238.794 391.423 238.784 391.179 238.771ZM390.146 238.706C390.231 238.712 390.316 238.717 390.4 238.723C390.316 238.717 390.231 238.712 390.146 238.706ZM389.07 238.624C389.122 238.628 389.173 238.633 389.225 238.637C389.173 238.633 389.122 238.628 389.07 238.624ZM387.987 238.526C388.064 238.534 388.142 238.541 388.219 238.548C388.142 238.541 388.064 238.534 387.987 238.526ZM386.823 238.402C387.017 238.424 387.211 238.445 387.405 238.466C387.211 238.445 387.017 238.424 386.823 238.402ZM385.746 238.271C385.996 238.304 386.247 238.334 386.498 238.364C386.247 238.334 385.996 238.304 385.746 238.271ZM384.691 238.126C384.943 238.163 385.195 238.197 385.448 238.23C385.195 238.197 384.943 238.163 384.691 238.126ZM383.706 237.976C383.916 238.009 384.127 238.041 384.339 238.073C384.127 238.041 383.916 238.009 383.706 237.976ZM382.672 237.802C382.844 237.832 383.017 237.861 383.189 237.89C383.017 237.861 382.844 237.832 382.672 237.802ZM381.621 237.607C381.806 237.643 381.992 237.678 382.178 237.712C381.992 237.678 381.806 237.643 381.621 237.607ZM380.645 237.411C380.818 237.447 380.992 237.483 381.166 237.518C380.992 237.483 380.818 237.447 380.645 237.411ZM379.651 237.196C379.794 237.228 379.937 237.26 380.08 237.291C379.937 237.26 379.794 237.228 379.651 237.196ZM378.636 236.959C378.783 236.995 378.93 237.029 379.077 237.063C378.93 237.029 378.783 236.995 378.636 236.959ZM377.67 236.717C377.812 236.753 377.954 236.789 378.096 236.825C377.954 236.789 377.812 236.753 377.67 236.717ZM376.665 236.447C376.8 236.485 376.934 236.521 377.069 236.558C376.934 236.521 376.8 236.485 376.665 236.447ZM375.646 236.155C375.819 236.207 375.993 236.258 376.167 236.308C375.993 236.258 375.819 236.207 375.646 236.155ZM374.662 235.855C374.833 235.909 375.005 235.963 375.177 236.016C375.005 235.963 374.833 235.909 374.662 235.855ZM373.779 235.57C373.925 235.618 374.07 235.667 374.216 235.714C374.07 235.667 373.925 235.618 373.779 235.57ZM372.836 235.249C372.959 235.292 373.082 235.336 373.205 235.378C373.082 235.336 372.959 235.292 372.836 235.249ZM371.934 234.925C372.05 234.968 372.166 235.012 372.283 235.054C372.166 235.012 372.05 234.968 371.934 234.925ZM371.015 234.578C371.107 234.614 371.2 234.65 371.293 234.686C371.2 234.65 371.107 234.614 371.015 234.578ZM369.894 234.131C370.078 234.207 370.263 234.282 370.448 234.356C370.263 234.282 370.078 234.207 369.894 234.131ZM368.982 233.746C369.157 233.821 369.331 233.897 369.507 233.971C369.331 233.897 369.157 233.821 368.982 233.746ZM368.151 233.38C368.308 233.45 368.464 233.521 368.621 233.59C368.464 233.521 368.308 233.45 368.151 233.38ZM367.465 233.065C367.528 233.095 367.591 233.125 367.654 233.154C367.591 233.125 367.528 233.095 367.465 233.065ZM365.376 232.038C365.565 232.136 365.754 232.234 365.944 232.33C365.754 232.234 365.565 232.136 365.376 232.038ZM430.257 229.369C430.435 229.261 430.612 229.153 430.789 229.044C430.612 229.153 430.435 229.261 430.257 229.369ZM431.974 228.29C432.21 228.136 432.447 227.983 432.681 227.826C432.447 227.983 432.21 228.136 431.974 228.29ZM433.085 227.552C433.236 227.449 433.388 227.346 433.538 227.242C433.388 227.346 433.236 227.449 433.085 227.552ZM434.251 226.741C434.31 226.699 434.37 226.658 434.429 226.615C434.37 226.658 434.31 226.699 434.251 226.741ZM434.982 226.211C435.105 226.121 435.227 226.032 435.349 225.941C435.227 226.032 435.105 226.121 434.982 226.211ZM435.711 225.669C435.899 225.527 436.087 225.384 436.273 225.24C436.087 225.384 435.899 225.527 435.711 225.669ZM436.712 224.896C436.818 224.813 436.925 224.729 437.03 224.645C436.925 224.729 436.818 224.813 436.712 224.896ZM437.63 224.158C437.719 224.085 437.809 224.013 437.897 223.939C437.809 224.013 437.719 224.085 437.63 224.158ZM438.341 223.567C438.503 223.43 438.665 223.294 438.826 223.155C438.665 223.294 438.503 223.43 438.341 223.567ZM439.119 222.899C439.289 222.752 439.458 222.604 439.626 222.454C439.458 222.604 439.289 222.752 439.119 222.899ZM439.963 222.149C440.115 222.012 440.267 221.875 440.417 221.736C440.267 221.875 440.115 222.012 439.963 222.149ZM440.789 221.389C440.93 221.256 441.071 221.124 441.211 220.99C441.071 221.124 440.93 221.256 440.789 221.389ZM441.552 220.662C441.699 220.52 441.845 220.376 441.99 220.232C441.845 220.376 441.699 220.52 441.552 220.662ZM442.387 219.837C442.502 219.721 442.618 219.604 442.732 219.486C442.618 219.604 442.502 219.721 442.387 219.837ZM443.119 219.088C443.262 218.939 443.404 218.79 443.546 218.64C443.404 218.79 443.262 218.939 443.119 219.088ZM443.854 218.311C443.995 218.158 444.135 218.004 444.275 217.851C444.135 218.004 443.995 218.158 443.854 218.311ZM393.044 218.23C392.545 218.251 392.043 218.266 391.539 218.273L390.741 218.279C391.515 218.279 392.282 218.262 393.044 218.23ZM388.43 218.229C388.929 218.25 389.43 218.266 389.934 218.273L389.154 218.256C388.912 218.249 388.671 218.239 388.43 218.229ZM444.631 217.459C444.766 217.308 444.9 217.156 445.034 217.004C444.9 217.156 444.766 217.308 444.631 217.459ZM390.741 114.905C382.37 114.905 374.6 116.984 367.405 121.146L367.396 121.15C360.409 125.123 354.725 131.011 350.354 138.871C346.18 146.517 344.068 155.449 344.068 165.713C344.068 176.152 346.181 185.261 350.359 193.081C354.725 200.758 360.408 206.649 367.404 210.796C374.596 214.785 382.367 216.779 390.741 216.779C399.302 216.779 407.073 214.778 414.086 210.791C421.256 206.641 426.932 200.751 431.122 193.081C435.299 185.264 437.414 176.071 437.414 165.456C437.414 155.337 435.428 146.555 431.508 139.066L431.122 138.346C426.933 130.677 421.26 124.877 414.1 120.9L414.093 120.896L414.086 120.894C407.073 116.906 399.302 114.905 390.741 114.905ZM445.351 216.642C445.484 216.488 445.615 216.333 445.747 216.178C445.615 216.333 445.484 216.488 445.351 216.642ZM446.073 215.792C446.214 215.624 446.353 215.454 446.492 215.284C446.353 215.454 446.214 215.624 446.073 215.792ZM446.746 214.972C446.889 214.795 447.031 214.617 447.173 214.438C447.031 214.617 446.889 214.795 446.746 214.972ZM447.435 214.105C447.58 213.92 447.724 213.733 447.867 213.545C447.724 213.733 447.58 213.92 447.435 214.105ZM448.13 213.2C448.258 213.031 448.383 212.86 448.51 212.688C448.383 212.86 448.258 213.031 448.13 213.2ZM367.353 212.476C367.737 212.682 368.125 212.881 368.513 213.076C368.125 212.881 367.737 212.682 367.353 212.476ZM413.128 213.015C413.238 212.958 413.349 212.902 413.459 212.845L413.48 212.833C413.363 212.895 413.245 212.954 413.128 213.015ZM417.995 210.086C416.972 210.794 415.917 211.464 414.827 212.095L414.146 212.476L414.827 212.096C415.917 211.465 416.972 210.794 417.995 210.086ZM366.654 212.096C366.802 212.178 366.952 212.257 367.101 212.338C366.952 212.257 366.803 212.177 366.654 212.095C366.487 211.996 366.321 211.895 366.155 211.794C366.321 211.895 366.487 211.997 366.654 212.096ZM448.784 212.314C448.894 212.164 449.003 212.012 449.111 211.86C449.003 212.012 448.894 212.164 448.784 212.314ZM449.457 211.373C449.546 211.247 449.634 211.119 449.722 210.992C449.634 211.119 449.546 211.247 449.457 211.373ZM450.091 210.455C450.204 210.288 450.316 210.119 450.429 209.95C450.317 210.119 450.204 210.288 450.091 210.455ZM450.695 209.546C450.822 209.352 450.947 209.157 451.072 208.962C450.947 209.157 450.822 209.352 450.695 209.546ZM451.312 208.589C451.473 208.333 451.632 208.076 451.791 207.817C451.632 208.076 451.473 208.333 451.312 208.589ZM451.91 207.623C452.06 207.378 452.207 207.131 452.354 206.883C452.207 207.131 452.06 207.378 451.91 207.623ZM453.076 205.64C453.22 205.387 453.361 205.132 453.502 204.876C453.361 205.132 453.22 205.387 453.076 205.64ZM455.039 201.93C455.107 201.791 455.176 201.653 455.243 201.515C455.176 201.653 455.107 201.791 455.039 201.93ZM455.641 200.68C455.675 200.607 455.709 200.535 455.742 200.463C455.709 200.535 455.675 200.607 455.641 200.68ZM456.416 198.967C456.503 198.767 456.592 198.568 456.678 198.367C456.592 198.568 456.503 198.767 456.416 198.967ZM456.943 197.733C457.016 197.56 457.089 197.386 457.16 197.212C457.089 197.386 457.016 197.56 456.943 197.733ZM350.665 196.482C350.505 196.233 350.347 195.982 350.189 195.729C350.347 195.982 350.505 196.233 350.665 196.482ZM457.373 196.679C457.45 196.486 457.526 196.292 457.602 196.099C457.526 196.292 457.45 196.486 457.373 196.679ZM457.757 195.694C457.838 195.481 457.919 195.267 457.999 195.052C457.919 195.267 457.838 195.481 457.757 195.694ZM432.563 193.561C432.521 193.64 432.481 193.72 432.438 193.8L432.029 194.535C431.813 194.916 431.592 195.292 431.369 195.664C431.735 195.054 432.093 194.434 432.438 193.801C432.481 193.721 432.521 193.64 432.563 193.561ZM348.426 192.604C348.627 193.006 348.832 193.405 349.043 193.801C349.193 194.064 349.344 194.325 349.497 194.585C349.487 194.568 349.477 194.552 349.468 194.535L349.043 193.8C348.832 193.405 348.627 193.006 348.426 192.604ZM458.201 194.499C458.264 194.325 458.327 194.15 458.389 193.975C458.327 194.15 458.264 194.325 458.201 194.499ZM458.582 193.418C458.648 193.227 458.714 193.036 458.778 192.845C458.714 193.036 458.648 193.227 458.582 193.418ZM458.975 192.246C459.025 192.092 459.076 191.938 459.125 191.783C459.076 191.938 459.025 192.092 458.975 192.246ZM459.351 191.062C459.393 190.924 459.436 190.785 459.478 190.646C459.436 190.785 459.393 190.924 459.351 191.062ZM459.658 190.037C459.718 189.834 459.777 189.631 459.835 189.427C459.777 189.631 459.718 189.834 459.658 190.037ZM459.988 188.873C460.039 188.688 460.091 188.503 460.141 188.317C460.091 188.503 460.039 188.688 459.988 188.873ZM460.295 187.729C460.348 187.526 460.4 187.322 460.451 187.118C460.4 187.322 460.348 187.526 460.295 187.729ZM460.582 186.589C460.633 186.379 460.683 186.168 460.732 185.957C460.683 186.168 460.633 186.379 460.582 186.589ZM460.861 185.401C460.904 185.214 460.945 185.027 460.986 184.839C460.945 185.027 460.904 185.214 460.861 185.401ZM461.138 184.138C461.17 183.982 461.202 183.825 461.234 183.669C461.202 183.825 461.17 183.982 461.138 184.138ZM461.361 183.036C461.402 182.829 461.441 182.622 461.48 182.414C461.441 182.622 461.402 182.829 461.361 183.036ZM461.592 181.808C461.63 181.598 461.667 181.387 461.703 181.177C461.667 181.387 461.63 181.598 461.592 181.808ZM461.804 180.581C461.828 180.431 461.852 180.28 461.876 180.13C461.852 180.28 461.828 180.431 461.804 180.581ZM461.994 179.372C462.023 179.178 462.05 178.984 462.078 178.79C462.05 178.984 462.023 179.178 461.994 179.372ZM462.16 178.209C462.19 177.991 462.218 177.773 462.246 177.555C462.218 177.773 462.19 177.991 462.16 178.209ZM462.324 176.945C462.362 176.634 462.397 176.322 462.432 176.009C462.397 176.322 462.362 176.634 462.324 176.945ZM462.457 175.775C462.485 175.515 462.512 175.254 462.538 174.992C462.512 175.254 462.485 175.515 462.457 175.775ZM462.597 174.395C462.608 174.268 462.618 174.141 462.629 174.014C462.618 174.141 462.608 174.268 462.597 174.395ZM462.699 173.184C462.721 172.914 462.741 172.644 462.76 172.373C462.741 172.644 462.721 172.914 462.699 173.184ZM462.789 171.957C462.804 171.731 462.817 171.504 462.83 171.277C462.817 171.504 462.804 171.731 462.789 171.957ZM438.762 170.328C438.729 170.844 438.69 171.356 438.646 171.865C438.69 171.356 438.729 170.844 438.762 170.328ZM438.907 166.466C438.902 166.867 438.893 167.267 438.882 167.665C438.893 167.268 438.902 166.868 438.907 166.467V166.466ZM436.631 147.938C436.871 148.784 437.093 149.641 437.295 150.511L437.086 149.645C436.943 149.07 436.791 148.501 436.631 147.938V147.938ZM435.271 143.812C435.676 144.885 436.048 145.98 436.385 147.097L436.125 146.263C435.859 145.433 435.575 144.616 435.271 143.811V143.812ZM433.956 140.655C434.31 141.428 434.646 142.213 434.962 143.01L434.64 142.217C434.42 141.691 434.192 141.17 433.956 140.654V140.655ZM429.383 132.713C430.32 134.039 431.202 135.432 432.029 136.892L431.611 136.167C430.766 134.73 429.865 133.359 428.91 132.055L429.383 132.713ZM424.798 127.191C425.165 127.567 425.526 127.95 425.881 128.341L425.345 127.76C424.984 127.377 424.616 127.001 424.243 126.633L424.798 127.191ZM453.719 126.703C453.697 126.663 453.675 126.623 453.653 126.583C453.675 126.623 453.697 126.663 453.719 126.703ZM452.172 124.033C452.091 123.901 452.012 123.768 451.931 123.636C452.012 123.768 452.091 123.901 452.172 124.033ZM451.629 123.153C451.528 122.992 451.427 122.83 451.324 122.67C451.427 122.83 451.528 122.992 451.629 123.153ZM450.959 122.107C450.876 121.981 450.794 121.854 450.711 121.729C450.794 121.854 450.876 121.981 450.959 122.107ZM417.538 121.224C417.758 121.367 417.976 121.513 418.193 121.66L417.539 121.224C417.319 121.08 417.097 120.939 416.874 120.799L417.538 121.224ZM450.409 121.278C450.308 121.128 450.207 120.977 450.104 120.827C450.207 120.977 450.308 121.128 450.409 121.278ZM449.773 120.351C449.673 120.206 449.572 120.061 449.471 119.918C449.572 120.061 449.673 120.206 449.773 120.351ZM343.973 119.348C343.921 119.428 343.871 119.509 343.819 119.589C343.871 119.509 343.921 119.428 343.973 119.348ZM449.164 119.492C449.041 119.321 448.918 119.151 448.793 118.981C448.918 119.151 449.041 119.321 449.164 119.492ZM448.555 118.661C448.422 118.483 448.289 118.305 448.155 118.129C448.289 118.305 448.422 118.483 448.555 118.661ZM344.975 117.854C344.899 117.963 344.825 118.073 344.75 118.182C344.825 118.073 344.899 117.963 344.975 117.854ZM447.83 117.707C447.711 117.553 447.591 117.399 447.471 117.246C447.591 117.399 447.711 117.553 447.83 117.707ZM345.507 117.104C345.39 117.266 345.274 117.43 345.159 117.593C345.274 117.43 345.39 117.266 345.507 117.104ZM447.179 116.879C447.052 116.72 446.924 116.562 446.796 116.404C446.924 116.562 447.052 116.72 447.179 116.879ZM346.022 116.404C345.941 116.513 345.86 116.624 345.779 116.733C345.86 116.624 345.941 116.513 346.022 116.404ZM346.613 115.631C346.492 115.786 346.373 115.943 346.254 116.1C346.373 115.943 346.492 115.786 346.613 115.631ZM446.501 116.046C446.36 115.875 446.218 115.705 446.075 115.536C446.218 115.705 446.36 115.875 446.501 116.046ZM347.113 114.999C346.982 115.162 346.853 115.327 346.724 115.491C346.853 115.327 346.982 115.162 347.113 114.999ZM445.792 115.204C445.643 115.03 445.493 114.857 445.343 114.686C445.493 114.857 445.643 115.03 445.792 115.204ZM379.757 114.638C379.504 114.696 379.251 114.757 378.999 114.82C379.503 114.695 380.01 114.578 380.519 114.469L379.757 114.638ZM347.721 114.259C347.593 114.411 347.467 114.564 347.342 114.718C347.467 114.564 347.593 114.411 347.721 114.259ZM382.053 114.166C381.796 114.212 381.54 114.261 381.284 114.312L382.053 114.167C382.309 114.121 382.566 114.076 382.824 114.034L382.053 114.166ZM445.012 114.312C444.905 114.192 444.798 114.072 444.69 113.953C444.798 114.072 444.905 114.192 445.012 114.312ZM348.312 113.562C348.166 113.732 348.021 113.904 347.876 114.075C348.021 113.904 348.166 113.732 348.312 113.562ZM385.948 113.632C385.686 113.657 385.424 113.685 385.162 113.714L385.949 113.632C386.212 113.607 386.475 113.583 386.738 113.562L385.948 113.632ZM444.282 113.506C444.166 113.38 444.05 113.255 443.934 113.131C444.05 113.255 444.166 113.38 444.282 113.506ZM390.741 113.405C389.932 113.405 389.128 113.424 388.329 113.462L389.13 113.431C389.665 113.414 390.202 113.405 390.741 113.405ZM348.854 112.945C348.733 113.081 348.614 113.218 348.494 113.354C348.614 113.218 348.733 113.081 348.854 112.945ZM443.624 112.803C443.474 112.645 443.323 112.487 443.171 112.331C443.323 112.487 443.474 112.645 443.624 112.803ZM349.428 112.313C349.331 112.418 349.235 112.524 349.14 112.629C349.235 112.524 349.331 112.418 349.428 112.313ZM442.845 111.997C442.72 111.87 442.594 111.745 442.468 111.619C442.594 111.745 442.72 111.87 442.845 111.997ZM350.039 111.662C349.952 111.753 349.865 111.844 349.779 111.936C349.865 111.844 349.952 111.753 350.039 111.662ZM350.727 110.955C350.609 111.074 350.492 111.194 350.375 111.313C350.492 111.194 350.609 111.074 350.727 110.955ZM442.058 111.212C441.928 111.085 441.797 110.959 441.666 110.833C441.797 110.959 441.928 111.085 442.058 111.212ZM351.393 110.294C351.25 110.433 351.108 110.572 350.967 110.713C351.108 110.572 351.25 110.433 351.393 110.294ZM441.273 110.458C441.167 110.358 441.061 110.259 440.954 110.159C441.061 110.259 441.167 110.358 441.273 110.458ZM352.028 109.683C351.887 109.816 351.748 109.95 351.608 110.084C351.748 109.95 351.887 109.816 352.028 109.683ZM440.492 109.731C440.378 109.627 440.262 109.524 440.146 109.42C440.262 109.524 440.378 109.627 440.492 109.731ZM352.674 109.082C352.554 109.191 352.436 109.302 352.317 109.412C352.436 109.302 352.554 109.191 352.674 109.082ZM439.71 109.029C439.569 108.905 439.428 108.783 439.286 108.66C439.428 108.783 439.569 108.905 439.71 109.029ZM353.396 108.434C353.258 108.555 353.121 108.676 352.985 108.799C353.121 108.676 353.258 108.555 353.396 108.434ZM438.925 108.348C438.759 108.206 438.592 108.067 438.425 107.928C438.592 108.067 438.759 108.206 438.925 108.348ZM354.028 107.882C353.917 107.977 353.806 108.072 353.696 108.168C353.806 108.072 353.917 107.977 354.028 107.882ZM438.105 107.662C437.925 107.514 437.744 107.367 437.562 107.221C437.744 107.367 437.925 107.514 438.105 107.662ZM354.707 107.309C354.608 107.391 354.508 107.473 354.41 107.556C354.508 107.473 354.608 107.391 354.707 107.309ZM437.279 106.993C437.094 106.846 436.907 106.701 436.72 106.556C436.907 106.701 437.094 106.846 437.279 106.993ZM355.555 106.617C355.403 106.738 355.252 106.859 355.103 106.981C355.252 106.859 355.403 106.738 355.555 106.617ZM356.229 106.086C356.08 106.201 355.933 106.316 355.786 106.432C355.933 106.316 356.08 106.201 356.229 106.086ZM436.41 106.315C436.226 106.174 436.04 106.036 435.854 105.896C436.04 106.036 436.226 106.174 436.41 106.315ZM356.887 105.581C356.787 105.656 356.688 105.731 356.59 105.807C356.688 105.731 356.787 105.656 356.887 105.581ZM435.537 105.658C435.326 105.502 435.113 105.349 434.899 105.195C435.113 105.349 435.326 105.502 435.537 105.658ZM357.688 104.988C357.568 105.075 357.448 105.161 357.33 105.248C357.448 105.161 357.568 105.075 357.688 104.988ZM434.701 105.052C434.484 104.897 434.265 104.743 434.045 104.591C434.265 104.743 434.484 104.897 434.701 105.052ZM358.537 104.38C358.389 104.484 358.24 104.587 358.093 104.692C358.24 104.587 358.389 104.484 358.537 104.38ZM433.796 104.417C433.592 104.277 433.386 104.141 433.181 104.003C433.386 104.141 433.592 104.277 433.796 104.417ZM359.34 103.823C359.176 103.935 359.013 104.047 358.851 104.159C359.013 104.047 359.176 103.935 359.34 103.823ZM432.886 103.805C432.637 103.64 432.386 103.477 432.134 103.315C432.386 103.477 432.637 103.64 432.886 103.805ZM360.424 103.1C360.161 103.271 359.901 103.443 359.643 103.617C359.901 103.443 360.161 103.271 360.424 103.1ZM431.057 102.639C431.361 102.825 431.664 103.014 431.964 103.205C431.663 103.014 431.361 102.824 431.057 102.638L430.108 102.067L431.057 102.639ZM363.806 101.036L362.938 101.54C362.373 101.874 361.817 102.213 361.269 102.559C362.095 102.038 362.941 101.531 363.806 101.037C364.097 100.871 364.39 100.706 364.684 100.545L363.806 101.036ZM428.77 101.302C428.578 101.195 428.388 101.087 428.195 100.982C428.388 101.087 428.578 101.195 428.77 101.302ZM427.808 100.775C427.619 100.675 427.432 100.572 427.243 100.474C427.432 100.573 427.619 100.675 427.808 100.775ZM426.63 100.159C426.527 100.107 426.425 100.053 426.322 100.001C426.425 100.053 426.527 100.107 426.63 100.159ZM367.362 99.1641C366.759 99.4552 366.162 99.7574 365.569 100.069L366.462 99.6094C367.06 99.3076 367.663 99.0163 368.271 98.7354L367.362 99.1641ZM425.623 99.6572C425.531 99.6123 425.439 99.566 425.347 99.5215C425.439 99.566 425.531 99.6123 425.623 99.6572ZM424.588 99.1641C424.518 99.1313 424.447 99.0979 424.377 99.0654C424.447 99.0979 424.518 99.1313 424.588 99.1641ZM423.797 98.8037C423.644 98.7351 423.491 98.666 423.338 98.5986C423.491 98.666 423.644 98.7351 423.797 98.8037ZM422.896 98.4082C422.713 98.3295 422.53 98.2508 422.347 98.1738C422.53 98.2508 422.713 98.3295 422.896 98.4082ZM421.938 98.0049C421.728 97.9188 421.518 97.8328 421.308 97.749C421.518 97.8328 421.728 97.9188 421.938 98.0049ZM420.925 97.5996C420.728 97.5227 420.531 97.446 420.333 97.3711C420.531 97.446 420.728 97.5227 420.925 97.5996ZM419.797 97.1719C419.652 97.1186 419.508 97.0649 419.363 97.0127C419.508 97.0649 419.652 97.1186 419.797 97.1719ZM373.88 96.4883C373.561 96.5975 373.243 96.7098 372.926 96.8242L373.88 96.4893C374.199 96.3801 374.519 96.2729 374.841 96.1689L373.88 96.4883ZM418.769 96.8027C418.624 96.7524 418.48 96.7016 418.336 96.6523C418.48 96.7016 418.624 96.7524 418.769 96.8027ZM417.698 96.4395C417.568 96.3964 417.437 96.3537 417.306 96.3115C417.437 96.3538 417.568 96.3964 417.698 96.4395ZM416.722 96.126C416.564 96.0768 416.406 96.0284 416.248 95.9805C416.406 96.0284 416.564 96.0768 416.722 96.126ZM415.69 95.8145C415.524 95.7657 415.358 95.7164 415.191 95.6689C415.358 95.7164 415.524 95.7657 415.69 95.8145ZM414.672 95.5244C414.482 95.472 414.291 95.4199 414.101 95.3691C414.291 95.4199 414.482 95.472 414.672 95.5244ZM413.575 95.2324C413.429 95.1949 413.283 95.1576 413.137 95.1211C413.283 95.1577 413.429 95.1949 413.575 95.2324ZM412.451 94.9531C412.34 94.9267 412.229 94.9009 412.118 94.875C412.229 94.9009 412.34 94.9267 412.451 94.9531ZM411.376 94.7061C411.259 94.6802 411.142 94.6551 411.024 94.6299C411.142 94.6551 411.259 94.6802 411.376 94.7061ZM410.337 94.4854C410.186 94.4546 410.035 94.4253 409.884 94.3955C410.035 94.4253 410.186 94.4546 410.337 94.4854ZM409.265 94.2754C409.113 94.2469 408.961 94.2198 408.809 94.1924C408.961 94.2198 409.113 94.2469 409.265 94.2754ZM408.192 94.083C407.999 94.05 407.806 94.0187 407.612 93.9873C407.806 94.0187 407.999 94.05 408.192 94.083ZM407.105 93.9062C406.941 93.8808 406.776 93.8564 406.61 93.832C406.776 93.8564 406.941 93.8808 407.105 93.9062ZM405.924 93.7334C405.808 93.7175 405.692 93.7028 405.576 93.6875C405.692 93.7028 405.808 93.7175 405.924 93.7334ZM404.865 93.5957C404.689 93.5743 404.513 93.5553 404.337 93.5352C404.513 93.5553 404.689 93.5743 404.865 93.5957ZM403.725 93.4668C403.534 93.4466 403.342 93.4279 403.15 93.4092C403.342 93.4279 403.534 93.4466 403.725 93.4668ZM402.642 93.3594C402.472 93.344 402.301 93.3307 402.131 93.3164C402.301 93.3307 402.472 93.344 402.642 93.3594ZM400.286 93.1836C400.262 93.1822 400.239 93.1811 400.215 93.1797C400.239 93.1811 400.262 93.1822 400.286 93.1836ZM399.158 93.125C399.044 93.12 398.93 93.1168 398.816 93.1123C398.93 93.1168 399.044 93.12 399.158 93.125ZM431.12 228.836C431.332 228.703 431.543 228.571 431.753 228.436C431.543 228.571 431.332 228.703 431.12 228.836ZM369.395 213.509C369.604 213.609 369.814 213.708 370.024 213.805C369.814 213.708 369.604 213.609 369.395 213.509ZM363.604 210.124C363.762 210.235 363.921 210.345 364.08 210.454C363.921 210.345 363.762 210.235 363.604 210.124ZM452.507 206.627C452.693 206.31 452.877 205.991 453.059 205.67C452.877 205.991 452.693 206.31 452.507 206.627ZM455.892 200.136C456.012 199.873 456.133 199.61 456.251 199.346C456.133 199.61 456.012 199.873 455.892 200.136ZM428.653 199.734C428.772 199.575 428.889 199.414 429.006 199.253C428.889 199.414 428.772 199.575 428.653 199.734ZM430.83 196.546C430.814 196.571 430.797 196.597 430.781 196.622C430.797 196.597 430.814 196.571 430.83 196.546ZM343.014 120.891L342.568 121.65C342.717 121.391 342.868 121.133 343.021 120.877C343.019 120.881 343.016 120.886 343.014 120.891ZM414.166 119.221C413.961 119.109 413.756 118.999 413.55 118.89C413.756 118.999 413.961 119.109 414.166 119.221ZM361.144 102.639C360.902 102.792 360.662 102.944 360.424 103.1C360.662 102.944 360.902 102.792 361.144 102.639Z" fill="black"/>
<path d="M905.5 62.6279H851.157V240.5H822.129V62.6279H767.5V38.5H905.5V62.6279Z" fill="black"/>
</svg>
