<svg width="522" height="459" viewBox="0 0 522 459" fill="none" xmlns="http://www.w3.org/2000/svg">
<path d="M169.659 326.257H243.701C262.659 326.257 277.751 338.347 281.54 356.825C282.595 361.879 282.563 367.1 281.447 372.141C280.33 377.182 278.154 381.928 275.063 386.063C274.62 386.689 274.192 387.331 274.085 387.469C277.721 391.229 281.723 394.469 284.564 398.443C300.833 420.558 287.833 452.501 260.764 457.193C258.681 457.562 256.571 457.757 254.455 457.774C226.959 457.774 199.462 457.774 171.965 457.774C171.278 457.774 170.591 457.774 169.781 457.667L169.659 326.257ZM188.448 438.807C189.166 438.807 189.624 438.899 190.083 438.899H254.914C255.696 438.917 256.478 438.866 257.251 438.746C266.508 437.049 273.535 428.261 272.756 419.397C271.824 408.912 264.095 401.576 253.89 401.576C232.901 401.576 211.922 401.576 190.953 401.576H188.448V438.807ZM188.448 382.44C188.663 382.541 188.889 382.618 189.12 382.67C207.833 382.67 226.546 382.929 245.244 382.67C247.891 382.638 250.501 382.034 252.892 380.897C255.284 379.76 257.401 378.119 259.098 376.086C260.795 374.052 262.031 371.675 262.723 369.118C263.414 366.561 263.543 363.884 263.102 361.272C261.574 351.537 254.028 345.194 243.839 345.163C226.149 345.163 208.46 345.163 190.785 345.163H188.448V382.44Z" fill="white"/>
<path d="M461.009 325C475.186 325 487.606 328.433 498.232 335.328L498.729 335.653C509.108 342.535 516.689 352.212 521.475 364.643L521.995 365.991H499.821L499.555 365.413C496.067 357.813 491.031 351.991 484.451 347.911L484.443 347.906C477.993 343.834 470.197 341.773 461.009 341.773C452.475 341.773 444.82 343.703 438.02 347.545L437.365 347.922C430.407 352.012 424.941 357.849 420.966 365.459L420.963 365.465C416.998 372.937 414.997 381.768 414.997 391.99C414.997 402.084 416.996 410.917 420.963 418.516L421.34 419.213C425.28 426.362 430.621 431.908 437.365 435.873L438.02 436.251C444.82 440.093 452.475 442.021 461.009 442.021C470.201 442.021 478 440.021 484.451 436.069C491.031 431.99 496.066 426.167 499.555 418.566L499.821 417.988H522L521.475 419.34C516.612 431.845 508.863 441.569 498.232 448.468L498.225 448.473V448.472C487.6 455.241 475.182 458.61 461.009 458.61C448.928 458.61 437.883 455.798 427.895 450.163L427.882 450.155C418.328 444.576 410.704 436.936 405.021 427.253L404.477 426.31C398.732 416.164 395.869 404.715 395.869 391.99C395.869 379.265 398.732 367.816 404.477 357.67C410.213 347.416 418.018 339.4 427.882 333.64L427.886 333.637L428.827 333.105C438.568 327.7 449.302 325 461.009 325ZM463.6 457.578C462.743 457.604 461.88 457.618 461.009 457.618C461.88 457.618 462.743 457.604 463.6 457.578ZM421.655 444.772C421.834 444.911 422.013 445.05 422.195 445.187C422.014 445.05 421.834 444.911 421.655 444.772ZM420.601 443.942C420.798 444.101 420.995 444.26 421.195 444.417C420.995 444.26 420.798 444.101 420.601 443.942ZM419.629 443.143C419.815 443.298 420 443.455 420.188 443.608C420 443.455 419.815 443.298 419.629 443.143ZM419.089 442.688C419.12 442.714 419.151 442.739 419.181 442.765C418.891 442.516 418.602 442.265 418.316 442.011L419.089 442.688ZM482.816 438.136C483.117 437.978 483.416 437.817 483.712 437.651L483.733 437.64C483.43 437.809 483.124 437.974 482.816 438.136ZM485.602 436.514C485.394 436.648 485.184 436.781 484.973 436.912L485.602 436.515C485.81 436.38 486.016 436.243 486.221 436.105L485.602 436.514ZM436.198 436.33C436.409 436.459 436.622 436.586 436.836 436.712C436.618 436.583 436.401 436.454 436.185 436.322L436.198 436.33ZM410.922 434.152C411.24 434.556 411.562 434.956 411.889 435.351L411.235 434.547C411.13 434.416 411.026 434.284 410.922 434.152ZM489.179 433.906L489.743 433.435C489.77 433.411 489.797 433.386 489.825 433.362C489.611 433.545 489.397 433.728 489.179 433.906ZM410.485 433.591C410.557 433.684 410.628 433.778 410.701 433.871C410.628 433.778 410.557 433.684 410.485 433.591ZM409.908 432.83C409.985 432.934 410.064 433.038 410.142 433.142C410.064 433.038 409.985 432.934 409.908 432.83ZM490.079 433.142C490.229 433.01 490.379 432.879 490.527 432.745C490.379 432.879 490.229 433.01 490.079 433.142ZM490.749 432.542C490.898 432.405 491.047 432.267 491.195 432.128C491.047 432.267 490.898 432.405 490.749 432.542ZM491.439 431.894C491.575 431.762 491.712 431.631 491.846 431.498C491.712 431.631 491.575 431.762 491.439 431.894ZM516.132 428.215L516.425 427.704C516.522 427.533 516.619 427.362 516.714 427.189V427.188C516.523 427.533 516.329 427.876 516.132 428.215ZM519.857 420.695L520.092 420.128C520.137 420.018 520.179 419.908 520.223 419.798C520.102 420.098 519.981 420.398 519.857 420.695ZM398.26 377.31C398.188 377.669 398.119 378.03 398.053 378.393L398.261 377.31C398.333 376.95 398.408 376.591 398.485 376.233L398.26 377.31ZM399.826 371.05C399.739 371.336 399.655 371.623 399.572 371.91C399.655 371.623 399.739 371.336 399.826 371.05ZM399.93 370.708C399.911 370.771 399.892 370.834 399.873 370.896C399.971 370.575 400.07 370.255 400.173 369.936L399.93 370.708ZM401.001 367.536C400.834 367.993 400.67 368.452 400.512 368.913L400.87 367.897C400.913 367.777 400.957 367.656 401.001 367.536ZM419.345 366.459C419.466 366.211 419.589 365.965 419.713 365.72L420.087 365V364.999C419.832 365.48 419.585 365.967 419.345 366.459ZM401.352 366.604C401.3 366.739 401.248 366.873 401.197 367.009C401.248 366.873 401.3 366.739 401.352 366.604ZM401.689 365.744C401.646 365.851 401.604 365.958 401.562 366.064C401.604 365.958 401.646 365.851 401.689 365.744ZM500.458 365H520.549V364.999H500.458V365ZM500.104 364.248C500.05 364.135 499.994 364.023 499.939 363.91C499.994 364.023 500.05 364.135 500.104 364.248ZM499.714 363.458C499.667 363.364 499.62 363.27 499.573 363.177C499.62 363.27 499.667 363.364 499.714 363.458ZM404.05 360.558C403.665 361.311 403.296 362.071 402.942 362.839C403.296 362.071 403.665 361.311 404.05 360.558ZM499.332 362.713C499.281 362.617 499.231 362.52 499.18 362.425C499.231 362.52 499.281 362.617 499.332 362.713ZM404.656 359.4C404.464 359.758 404.275 360.118 404.09 360.479C404.275 360.118 404.464 359.758 404.656 359.4ZM405.34 358.159C405.141 358.512 404.945 358.866 404.752 359.222C404.945 358.866 405.141 358.512 405.34 358.159ZM437.533 346.681C437.436 346.735 437.341 346.792 437.245 346.847C437.565 346.663 437.886 346.481 438.209 346.306L437.533 346.681ZM461.881 340.788C462.133 340.792 462.384 340.797 462.634 340.804C462.384 340.797 462.133 340.791 461.881 340.787L461.009 340.781L461.881 340.788ZM430.238 333.466C429.927 333.632 429.616 333.801 429.307 333.973L430.238 333.467C430.549 333.301 430.862 333.137 431.175 332.977L430.238 333.466ZM434.984 331.182C434.341 331.459 433.702 331.747 433.067 332.046L434.023 331.605C434.662 331.318 435.305 331.041 435.952 330.775L434.984 331.182ZM442.581 328.48C442.053 328.63 441.529 328.788 441.006 328.951C441.529 328.788 442.053 328.63 442.581 328.48ZM443.476 328.233C443.318 328.276 443.159 328.32 443.001 328.363C443.159 328.32 443.318 328.276 443.476 328.233ZM444.367 328.001C444.198 328.044 444.031 328.088 443.863 328.132C444.031 328.088 444.198 328.044 444.367 328.001ZM445.264 327.781C445.095 327.821 444.927 327.864 444.759 327.905C444.927 327.864 445.095 327.821 445.264 327.781ZM446.196 327.567C445.993 327.612 445.791 327.659 445.589 327.706C445.791 327.659 445.993 327.612 446.196 327.567ZM446.999 327.396C446.841 327.428 446.684 327.463 446.527 327.497C446.695 327.461 446.864 327.423 447.033 327.388L446.999 327.396ZM457.684 326.066C457.318 326.083 456.953 326.103 456.588 326.125L457.685 326.066C458.051 326.05 458.418 326.036 458.787 326.025L457.684 326.066ZM419.345 366.459C419.234 366.687 419.125 366.916 419.017 367.146C419.125 366.916 419.234 366.687 419.345 366.459Z" fill="white"/>
<path d="M152.105 340.207H151.113C144.415 340.207 139.936 341.563 137.391 344.022L137.166 344.246C134.882 346.616 133.625 350.596 133.625 356.44V362.1H153.122V376.876H133.625V457.548H116.213V376.876H104.176V362.1H116.213V356.44C116.213 345.832 118.907 337.887 124.509 332.849L124.778 332.611C130.481 327.644 139.331 325.26 151.113 325.26H152.105V340.207ZM117.329 352.664C117.282 353.349 117.25 354.047 117.23 354.76C117.25 354.047 117.282 353.349 117.329 352.664ZM117.395 351.79C117.391 351.841 117.388 351.894 117.384 351.946C117.388 351.894 117.391 351.841 117.395 351.79ZM117.483 350.878C117.471 350.985 117.462 351.093 117.452 351.201C117.462 351.093 117.471 350.985 117.483 350.878ZM117.584 350.004C117.558 350.214 117.534 350.426 117.51 350.638C117.534 350.426 117.558 350.214 117.584 350.004ZM117.698 349.166C117.678 349.305 117.66 349.444 117.641 349.584C117.66 349.444 117.678 349.305 117.698 349.166ZM117.824 348.356C117.802 348.49 117.782 348.624 117.761 348.759C117.782 348.624 117.802 348.49 117.824 348.356ZM117.97 347.541C117.956 347.611 117.945 347.682 117.932 347.752C117.945 347.682 117.956 347.611 117.97 347.541ZM118.131 346.736C118.105 346.858 118.082 346.98 118.057 347.103C118.082 346.98 118.105 346.858 118.131 346.736ZM118.31 345.937C118.279 346.067 118.251 346.198 118.222 346.329C118.251 346.198 118.279 346.067 118.31 345.937ZM118.499 345.18C118.465 345.313 118.431 345.447 118.398 345.581C118.431 345.447 118.465 345.313 118.499 345.18ZM118.713 344.407C118.672 344.548 118.633 344.691 118.594 344.834C118.633 344.691 118.672 344.548 118.713 344.407ZM135.983 344.08C136 344.06 136.018 344.041 136.035 344.022C136.018 344.041 136 344.06 135.983 344.08ZM118.932 343.682C118.888 343.822 118.845 343.963 118.803 344.105C118.845 343.963 118.888 343.822 118.932 343.682ZM136.209 343.819C136.163 343.87 136.119 343.922 136.075 343.974C136.122 343.92 136.169 343.865 136.217 343.811L136.209 343.819ZM119.45 342.188C119.422 342.262 119.394 342.335 119.367 342.409C119.394 342.335 119.422 342.262 119.45 342.188ZM119.566 341.887C119.534 341.968 119.503 342.048 119.472 342.129C119.503 342.048 119.534 341.968 119.566 341.887ZM119.695 341.565C119.672 341.621 119.649 341.678 119.627 341.734C119.649 341.678 119.672 341.621 119.695 341.565ZM119.85 341.192C119.819 341.265 119.789 341.337 119.758 341.41C119.789 341.337 119.819 341.265 119.85 341.192ZM119.967 340.92C119.95 340.959 119.934 340.997 119.917 341.035C119.934 340.997 119.95 340.959 119.967 340.92ZM120.123 340.574C120.101 340.622 120.079 340.671 120.057 340.72C120.079 340.671 120.101 340.622 120.123 340.574ZM120.438 339.912C120.407 339.975 120.376 340.037 120.345 340.1C120.376 340.037 120.407 339.975 120.438 339.912ZM120.599 339.592C120.565 339.658 120.532 339.724 120.499 339.791C120.532 339.724 120.565 339.658 120.599 339.592ZM120.747 339.309C120.721 339.358 120.695 339.407 120.67 339.457C120.695 339.407 120.721 339.358 120.747 339.309ZM120.905 339.017C120.879 339.064 120.853 339.111 120.827 339.159C120.853 339.111 120.879 339.064 120.905 339.017ZM121.635 337.784C121.598 337.842 121.561 337.899 121.526 337.956C121.561 337.899 121.598 337.842 121.635 337.784ZM121.836 337.474C121.795 337.536 121.753 337.598 121.713 337.66C121.753 337.598 121.795 337.536 121.836 337.474ZM122.075 337.119C122.016 337.206 121.956 337.292 121.898 337.38C121.956 337.292 122.016 337.206 122.075 337.119ZM122.714 336.242C122.705 336.253 122.696 336.265 122.688 336.277C122.696 336.265 122.705 336.253 122.714 336.242ZM123.191 335.647C123.162 335.682 123.132 335.718 123.103 335.754C123.132 335.718 123.162 335.682 123.191 335.647ZM125.43 333.359C125.347 333.431 125.265 333.504 125.183 333.577C125.35 333.428 125.519 333.281 125.691 333.136L125.43 333.359ZM126.348 332.605C126.216 332.707 126.086 332.811 125.957 332.915L126.229 332.698C126.268 332.667 126.308 332.636 126.348 332.605ZM127.653 331.669C127.524 331.755 127.396 331.842 127.27 331.93C127.396 331.842 127.524 331.755 127.653 331.669ZM129.958 330.32C129.186 330.718 128.452 331.145 127.757 331.601C128.452 331.145 129.186 330.718 129.958 330.32ZM132.27 329.263C132.046 329.353 131.824 329.447 131.605 329.542C131.942 329.396 132.286 329.254 132.636 329.117L132.27 329.263ZM134.143 328.573C133.757 328.702 133.378 328.836 133.006 328.976L133.38 328.838C133.883 328.657 134.398 328.485 134.926 328.323L134.143 328.573ZM136.713 327.823C136.38 327.908 136.051 327.995 135.727 328.086L136.547 327.864C136.602 327.85 136.658 327.837 136.713 327.823ZM142.816 326.711C141.213 326.902 139.689 327.153 138.244 327.463C139.978 327.091 141.826 326.804 143.787 326.604L142.816 326.711ZM122.187 336.96C122.15 337.013 122.112 337.066 122.075 337.119C122.112 337.066 122.15 337.013 122.187 336.96ZM123.012 335.865C122.971 335.916 122.929 335.967 122.888 336.019C122.929 335.967 122.971 335.916 123.012 335.865Z" fill="white"/>
<path d="M17.5733 376.947C20.7321 372.513 24.926 368.809 30.136 365.833L30.7322 365.499C36.9195 362.106 43.9168 360.419 51.6992 360.419C60.3129 360.419 68.0841 362.448 74.9871 366.522L75.6304 366.909C82.2274 370.957 87.4468 376.588 91.2865 383.777L91.6534 384.467C95.3822 391.637 97.231 399.925 97.2311 409.304C97.231 418.575 95.3808 426.908 91.6586 434.28L91.2924 434.99C87.3285 442.53 81.8366 448.406 74.8204 452.595L74.8198 452.594C67.919 456.781 60.2041 458.87 51.6992 458.87C43.4429 458.87 36.1308 457.076 29.7937 453.456L29.7866 453.452C24.708 450.497 20.6304 446.861 17.5733 442.543V457.336H0V329.229H17.5733V376.947ZM49.463 457.832C49.6371 457.84 49.8118 457.845 49.9868 457.85C49.8118 457.845 49.6371 457.84 49.463 457.832ZM48.7337 457.797C48.895 457.806 49.0567 457.813 49.2188 457.82C49.0567 457.813 48.895 457.806 48.7337 457.797ZM48.051 457.754C48.1069 457.758 48.1629 457.762 48.2189 457.765C48.1629 457.762 48.1069 457.758 48.051 457.754ZM47.3392 457.7C47.3732 457.703 47.4072 457.706 47.4412 457.708C47.4072 457.706 47.3732 457.703 47.3392 457.7ZM46.6228 457.635C46.6738 457.64 46.7249 457.645 46.7759 457.65C46.7249 457.645 46.6738 457.64 46.6228 457.635ZM45.8529 457.553C45.9809 457.568 46.1093 457.582 46.2379 457.595C46.1093 457.582 45.9809 457.568 45.8529 457.553ZM45.1404 457.467C45.3057 457.488 45.4715 457.508 45.6378 457.528C45.4715 457.508 45.3057 457.488 45.1404 457.467ZM44.4428 457.371C44.6092 457.395 44.7761 457.417 44.9434 457.44C44.7761 457.417 44.6092 457.395 44.4428 457.371ZM43.7911 457.271C43.9302 457.293 44.0698 457.315 44.2096 457.336C44.0698 457.315 43.9302 457.293 43.7911 457.271ZM43.107 457.156C43.2209 457.176 43.3351 457.195 43.4494 457.214C43.3351 457.195 43.2209 457.176 43.107 457.156ZM42.412 457.028C42.5344 457.051 42.6572 457.074 42.7802 457.097C42.6572 457.074 42.5344 457.051 42.412 457.028ZM41.7661 456.898C41.8808 456.922 41.9958 456.945 42.111 456.968C41.9958 456.945 41.8808 456.922 41.7661 456.898ZM41.1091 456.756C41.2035 456.777 41.298 456.798 41.3927 456.818C41.298 456.798 41.2035 456.777 41.1091 456.756ZM40.4374 456.599C40.5345 456.622 40.6319 456.645 40.7293 456.668C40.6319 456.645 40.5345 456.622 40.4374 456.599ZM39.7985 456.438C39.8922 456.463 39.9861 456.487 40.0802 456.51C39.9861 456.487 39.8922 456.463 39.7985 456.438ZM39.1339 456.26C39.2229 456.285 39.312 456.309 39.4013 456.333C39.312 456.309 39.2229 456.285 39.1339 456.26ZM38.4595 456.067C38.5743 456.101 38.6892 456.135 38.8044 456.168C38.6892 456.135 38.5743 456.101 38.4595 456.067ZM37.8091 455.869C37.9223 455.904 38.0357 455.94 38.1495 455.975C38.0357 455.94 37.9223 455.904 37.8091 455.869ZM37.2251 455.68C37.3213 455.712 37.4174 455.744 37.5139 455.775C37.4174 455.744 37.3213 455.712 37.2251 455.68ZM36.6012 455.468C36.6825 455.496 36.7637 455.525 36.8453 455.553C36.7637 455.525 36.6825 455.496 36.6012 455.468ZM36.0043 455.253C36.0814 455.282 36.1583 455.311 36.2356 455.338C36.1583 455.311 36.0814 455.282 36.0043 455.253ZM35.3965 455.024C35.4578 455.048 35.5191 455.071 35.5806 455.095C35.5191 455.071 35.4578 455.048 35.3965 455.024ZM34.655 454.728C34.777 454.778 34.8992 454.828 35.0219 454.877C34.8992 454.828 34.777 454.778 34.655 454.728ZM34.0523 454.474C34.1677 454.523 34.2831 454.573 34.3992 454.622C34.2831 454.573 34.1677 454.523 34.0523 454.474ZM33.5026 454.231C33.606 454.278 33.7094 454.325 33.8133 454.37C33.7094 454.325 33.606 454.278 33.5026 454.231ZM33.0485 454.023C33.0903 454.043 33.132 454.063 33.1738 454.082C33.132 454.063 33.0903 454.043 33.0485 454.023ZM31.6669 453.344C31.792 453.408 31.9169 453.474 32.0428 453.537C31.9169 453.474 31.792 453.408 31.6669 453.344ZM74.5814 451.578C74.6991 451.507 74.8167 451.436 74.9334 451.363C74.8167 451.436 74.6991 451.507 74.5814 451.578ZM75.717 450.865C75.8734 450.763 76.0298 450.661 76.1846 450.558C76.0298 450.661 75.8734 450.763 75.717 450.865ZM76.452 450.376C76.5522 450.308 76.6523 450.24 76.7517 450.172C76.6523 450.24 76.5522 450.308 76.452 450.376ZM77.2233 449.84C77.2624 449.812 77.3018 449.785 77.3408 449.757C77.3018 449.785 77.2624 449.812 77.2233 449.84ZM77.7071 449.49C77.7879 449.43 77.8689 449.371 77.9493 449.311C77.8689 449.371 77.7879 449.43 77.7071 449.49ZM78.1889 449.131C78.3134 449.037 78.4377 448.943 78.561 448.847C78.4377 448.943 78.3134 449.037 78.1889 449.131ZM78.851 448.62C78.9213 448.565 78.9917 448.509 79.0616 448.453C78.9917 448.509 78.9213 448.565 78.851 448.62ZM79.4582 448.132C79.5172 448.083 79.5765 448.036 79.6352 447.987C79.5765 448.036 79.5172 448.083 79.4582 448.132ZM79.9284 447.741C80.0357 447.65 80.1431 447.56 80.2495 447.468C80.1431 447.56 80.0357 447.65 79.9284 447.741ZM80.4433 447.299C80.5554 447.201 80.6675 447.104 80.7785 447.005C80.6675 447.104 80.5554 447.201 80.4433 447.299ZM81.0013 446.803C81.1017 446.712 81.2022 446.622 81.3017 446.53C81.2022 446.622 81.1017 446.712 81.0013 446.803ZM81.5478 446.3C81.6411 446.212 81.7343 446.125 81.8268 446.036C81.7343 446.125 81.6411 446.212 81.5478 446.3ZM82.0523 445.819C82.1494 445.725 82.246 445.63 82.3423 445.535C82.246 445.63 82.1494 445.725 82.0523 445.819ZM82.6045 445.274C82.681 445.197 82.7573 445.119 82.8332 445.042C82.7573 445.119 82.681 445.197 82.6045 445.274ZM83.089 444.778C83.1835 444.68 83.2776 444.581 83.3713 444.482C83.2776 444.581 83.1835 444.68 83.089 444.778ZM83.5747 444.264C83.6684 444.163 83.7611 444.061 83.8538 443.96C83.7611 444.061 83.6684 444.163 83.5747 444.264ZM49.9675 444.211C49.6374 444.225 49.3056 444.235 48.9721 444.239L48.4444 444.243C48.956 444.243 49.4637 444.232 49.9675 444.211ZM46.9154 444.21C47.2457 444.224 47.5772 444.234 47.9102 444.239L47.3947 444.228C47.2346 444.223 47.0749 444.217 46.9154 444.21ZM84.0889 443.701C84.1783 443.601 84.2671 443.5 84.3557 443.4C84.2671 443.5 84.1783 443.601 84.0889 443.701ZM48.4444 375.868C42.9074 375.868 37.7679 377.243 33.0091 379.995L33.0033 379.999C28.3815 382.626 24.6219 386.521 21.7311 391.72C18.9703 396.777 17.5733 402.685 17.5733 409.474C17.5733 416.379 18.9707 422.403 21.7344 427.576C24.6221 432.654 28.381 436.551 33.0085 439.293C37.7654 441.932 42.9053 443.251 48.4444 443.251C54.1067 443.251 59.2467 441.927 63.8854 439.29C68.6277 436.546 72.3825 432.649 75.1537 427.576C77.9162 422.406 79.3154 416.325 79.3155 409.304C79.3154 402.611 78.002 396.802 75.4088 391.849L75.1537 391.372C72.383 386.3 68.6309 382.464 63.8944 379.833L63.8899 379.831L63.8854 379.829C59.2467 377.192 54.1067 375.868 48.4444 375.868ZM84.5649 443.16C84.6529 443.058 84.7401 442.956 84.8272 442.853C84.7401 442.956 84.6529 443.058 84.5649 443.16ZM85.0429 442.598C85.1359 442.487 85.228 442.375 85.32 442.262C85.228 442.375 85.1359 442.487 85.0429 442.598ZM85.488 442.055C85.5826 441.938 85.6768 441.821 85.7703 441.703C85.6768 441.821 85.5826 441.938 85.488 442.055ZM85.9434 441.483C86.0393 441.36 86.1347 441.236 86.2295 441.112C86.1347 441.236 86.0393 441.36 85.9434 441.483ZM86.4033 440.884C86.4877 440.772 86.571 440.658 86.6545 440.545C86.571 440.658 86.4877 440.772 86.4033 440.884ZM32.9743 440.404C33.2289 440.541 33.4849 440.673 33.7416 440.802C33.4849 440.673 33.2289 440.541 32.9743 440.404ZM63.2517 440.761C63.3246 440.723 63.3981 440.687 63.4707 440.649L63.4849 440.641C63.4075 440.682 63.3294 440.721 63.2517 440.761ZM66.4711 438.824C65.7946 439.292 65.0965 439.736 64.3757 440.153L63.9248 440.404L64.3757 440.153C65.0965 439.736 65.7945 439.292 66.4711 438.824ZM32.5124 440.153C32.6104 440.208 32.7093 440.26 32.8076 440.313C32.7092 440.26 32.6105 440.207 32.5124 440.153C32.4018 440.087 32.292 440.02 32.1823 439.954C32.2921 440.02 32.4017 440.088 32.5124 440.153ZM86.8361 440.298C86.9086 440.198 86.9806 440.098 87.0524 439.998C86.9806 440.098 86.9086 440.198 86.8361 440.298ZM87.2811 439.675C87.3398 439.592 87.3979 439.507 87.4562 439.423C87.3979 439.507 87.3398 439.592 87.2811 439.675ZM87.7003 439.068C87.7753 438.957 87.8496 438.846 87.9238 438.734C87.8496 438.846 87.7753 438.957 87.7003 439.068ZM88.1001 438.467C88.184 438.339 88.2667 438.21 88.3495 438.08C88.2667 438.21 88.184 438.339 88.1001 438.467ZM88.5077 437.834C88.6145 437.665 88.7199 437.494 88.8249 437.323C88.7199 437.494 88.6145 437.665 88.5077 437.834ZM88.9037 437.195C89.0025 437.033 89.1003 436.869 89.1976 436.705C89.1003 436.869 89.0025 437.033 88.9037 437.195ZM89.6749 435.883C89.7697 435.716 89.8634 435.547 89.9566 435.378C89.8634 435.547 89.7697 435.716 89.6749 435.883ZM90.9733 433.429C91.0184 433.338 91.0637 433.246 91.1083 433.155C91.0637 433.246 91.0184 433.338 90.9733 433.429ZM91.3712 432.602C91.3936 432.554 91.4161 432.507 91.4383 432.459C91.4161 432.507 91.3936 432.554 91.3712 432.602ZM91.884 431.469C91.9419 431.337 92.0004 431.205 92.0571 431.073C92.0004 431.205 91.9419 431.337 91.884 431.469ZM92.2328 430.653C92.2807 430.539 92.3292 430.424 92.3762 430.309C92.3292 430.424 92.2807 430.539 92.2328 430.653ZM21.9365 429.826C21.8306 429.661 21.7259 429.495 21.622 429.327C21.7259 429.495 21.8306 429.661 21.9365 429.826ZM92.517 429.956C92.5679 429.828 92.6184 429.7 92.6682 429.572C92.6184 429.7 92.5679 429.828 92.517 429.956ZM92.7709 429.305C92.8248 429.163 92.8784 429.022 92.9311 428.88C92.8784 429.022 92.8248 429.163 92.7709 429.305ZM76.1071 427.893C76.0793 427.946 76.0525 427.999 76.0244 428.052L75.7538 428.538C75.611 428.79 75.4648 429.039 75.3171 429.285C75.5591 428.881 75.7957 428.471 76.0244 428.052C76.0525 428 76.0793 427.946 76.1071 427.893ZM20.4554 427.261C20.5884 427.527 20.7238 427.791 20.8636 428.052C20.9627 428.227 21.063 428.399 21.164 428.571C21.1576 428.56 21.1511 428.549 21.1446 428.538L20.8636 428.052C20.7239 427.79 20.5883 427.526 20.4554 427.261ZM93.0648 428.514C93.1065 428.399 93.1479 428.283 93.1888 428.167C93.1479 428.283 93.1065 428.399 93.0648 428.514ZM93.3167 427.799C93.3602 427.673 93.404 427.547 93.4465 427.42C93.404 427.547 93.3602 427.673 93.3167 427.799ZM93.5764 427.024C93.6096 426.922 93.6432 426.82 93.6758 426.718C93.6432 426.82 93.6096 426.922 93.5764 427.024ZM93.8251 426.241C93.8533 426.149 93.8812 426.057 93.909 425.965C93.8812 426.057 93.8533 426.149 93.8251 426.241ZM94.0285 425.563C94.0678 425.429 94.1072 425.294 94.1454 425.159C94.1072 425.294 94.0678 425.429 94.0285 425.563ZM94.2468 424.793C94.2806 424.671 94.3147 424.548 94.3476 424.425C94.3147 424.548 94.2806 424.671 94.2468 424.793ZM94.4497 424.037C94.4846 423.902 94.5192 423.767 94.553 423.632C94.5192 423.767 94.4846 423.902 94.4497 424.037ZM94.6396 423.282C94.6734 423.143 94.7063 423.004 94.7391 422.864C94.7063 423.004 94.6734 423.143 94.6396 423.282ZM94.8243 422.497C94.8524 422.373 94.8797 422.249 94.907 422.125C94.8797 422.249 94.8524 422.373 94.8243 422.497ZM95.0071 421.661C95.0288 421.558 95.0499 421.454 95.0711 421.351C95.0499 421.454 95.0288 421.558 95.0071 421.661ZM95.155 420.932C95.1818 420.795 95.208 420.658 95.2338 420.521C95.208 420.658 95.1818 420.795 95.155 420.932ZM95.3075 420.12C95.3325 419.981 95.3571 419.842 95.3811 419.702C95.3571 419.842 95.3325 419.981 95.3075 420.12ZM95.4476 419.308C95.464 419.209 95.4796 419.109 95.4954 419.01C95.4796 419.109 95.464 419.209 95.4476 419.308ZM95.5736 418.509C95.5928 418.381 95.6108 418.252 95.6291 418.124C95.6108 418.252 95.5928 418.381 95.5736 418.509ZM95.6834 417.739C95.703 417.595 95.7217 417.451 95.7402 417.307C95.7217 417.451 95.703 417.595 95.6834 417.739ZM95.7919 416.903C95.8169 416.698 95.8401 416.491 95.863 416.284C95.8401 416.491 95.8169 416.698 95.7919 416.903ZM95.8798 416.13C95.8984 415.957 95.9162 415.785 95.9334 415.612C95.9162 415.785 95.8984 415.957 95.8798 416.13ZM95.9721 415.216C95.9799 415.132 95.986 415.048 95.9935 414.964C95.986 415.048 95.9799 415.132 95.9721 415.216ZM96.04 414.415C96.0541 414.237 96.0674 414.058 96.08 413.879C96.0674 414.058 96.0541 414.237 96.04 414.415ZM96.0994 413.604C96.1092 413.454 96.1177 413.305 96.1265 413.154C96.1177 413.305 96.1092 413.454 96.0994 413.604ZM80.2068 412.527C80.1852 412.868 80.1593 413.207 80.1306 413.543C80.1593 413.207 80.1852 412.868 80.2068 412.527ZM80.3031 409.972C80.2998 410.238 80.2936 410.502 80.2863 410.765C80.2936 410.502 80.2998 410.238 80.3031 409.973V409.972ZM78.7974 397.717C78.9563 398.276 79.1028 398.844 79.2366 399.419L79.0984 398.846C79.0036 398.466 78.9034 398.089 78.7974 397.717V397.717ZM77.8983 394.988C78.166 395.698 78.4116 396.422 78.6346 397.161L78.4628 396.609C78.2871 396.06 78.099 395.52 77.8983 394.987V394.988ZM77.0282 392.9C77.2624 393.411 77.4844 393.93 77.6935 394.457L77.4804 393.933C77.3353 393.585 77.1844 393.24 77.0282 392.899V392.9ZM74.0033 387.647C74.6229 388.524 75.2065 389.445 75.7538 390.411L75.4773 389.931C74.9179 388.981 74.3223 388.074 73.6907 387.211L74.0033 387.647ZM70.9706 383.994C71.2134 384.243 71.4523 384.496 71.687 384.755L71.3324 384.37C71.0936 384.117 70.8505 383.869 70.6037 383.625L70.9706 383.994ZM90.1 383.671C90.0854 383.645 90.0713 383.618 90.0567 383.592C90.0713 383.618 90.0854 383.645 90.1 383.671ZM89.0768 381.906C89.0235 381.818 88.971 381.73 88.9173 381.643C88.971 381.73 89.0235 381.818 89.0768 381.906ZM88.7177 381.324C88.6506 381.217 88.5839 381.11 88.5161 381.004C88.5839 381.11 88.6506 381.217 88.7177 381.324ZM88.2746 380.632C88.2199 380.548 88.1656 380.464 88.1105 380.381C88.1656 380.464 88.2199 380.548 88.2746 380.632ZM66.1688 380.047C66.3143 380.142 66.4587 380.238 66.6022 380.336L66.1694 380.047C66.0239 379.952 65.8771 379.859 65.7295 379.766L66.1688 380.047ZM87.9109 380.083C87.8438 379.984 87.7771 379.884 87.7094 379.785C87.7771 379.884 87.8438 379.984 87.9109 380.083ZM87.4904 379.47C87.4237 379.374 87.3575 379.278 87.2901 379.184C87.3575 379.278 87.4237 379.374 87.4904 379.47ZM17.51 378.806C17.4758 378.859 17.4424 378.913 17.4086 378.966C17.4424 378.913 17.4758 378.859 17.51 378.806ZM87.0873 378.902C87.0058 378.789 86.9243 378.676 86.8419 378.564C86.9243 378.676 87.0058 378.789 87.0873 378.902ZM86.6843 378.352C86.5965 378.234 86.5088 378.117 86.4201 378C86.5088 378.117 86.5965 378.234 86.6843 378.352ZM18.1727 377.819C18.1227 377.89 18.0736 377.963 18.0241 378.035C18.0736 377.963 18.1227 377.89 18.1727 377.819ZM86.205 377.721C86.126 377.619 86.047 377.517 85.9673 377.416C86.047 377.517 86.126 377.619 86.205 377.721ZM18.5247 377.323C18.4473 377.43 18.371 377.538 18.2948 377.646C18.371 377.538 18.4473 377.43 18.5247 377.323ZM85.7741 377.173C85.6901 377.068 85.6059 376.964 85.5209 376.859C85.6059 376.964 85.6901 377.068 85.7741 377.173ZM18.8658 376.859C18.8117 376.932 18.7585 377.005 18.7049 377.077C18.7585 377.005 18.8117 376.932 18.8658 376.859ZM19.2566 376.348C19.1765 376.451 19.0977 376.554 19.0189 376.658C19.0977 376.554 19.1765 376.451 19.2566 376.348ZM85.3259 376.622C85.2324 376.51 85.1387 376.397 85.0442 376.285C85.1387 376.397 85.2324 376.51 85.3259 376.622ZM19.5873 375.93C19.5005 376.038 19.415 376.147 19.3296 376.256C19.415 376.147 19.5005 376.038 19.5873 375.93ZM84.8569 376.066C84.7584 375.951 84.6594 375.836 84.5598 375.723C84.6594 375.836 84.7584 375.951 84.8569 376.066ZM41.1789 375.691C41.0114 375.73 40.8444 375.77 40.6777 375.812C41.0111 375.729 41.3462 375.651 41.6827 375.579L41.1789 375.691ZM19.9891 375.44C19.9049 375.541 19.8214 375.642 19.7384 375.744C19.8214 375.642 19.9049 375.541 19.9891 375.44ZM42.6975 375.379C42.5276 375.41 42.3582 375.442 42.1891 375.475L42.6975 375.38C42.8672 375.349 43.0373 375.32 43.2078 375.292L42.6975 375.379ZM84.3408 375.475C84.2702 375.396 84.1994 375.317 84.1283 375.238C84.1994 375.317 84.2702 375.396 84.3408 375.475ZM20.3805 374.98C20.2833 375.092 20.1874 375.205 20.0918 375.319C20.1874 375.205 20.2833 375.092 20.3805 374.98ZM45.2741 375.026C45.1004 375.042 44.9271 375.061 44.7541 375.08L45.2748 375.026C45.4483 375.009 45.6223 374.994 45.7967 374.98L45.2741 375.026ZM83.8583 374.942C83.7818 374.859 83.7049 374.777 83.6277 374.694C83.7049 374.777 83.7818 374.859 83.8583 374.942ZM48.4444 374.876C47.9091 374.876 47.3772 374.888 46.8489 374.913L47.3786 374.893C47.7323 374.882 48.0875 374.876 48.4444 374.876ZM20.739 374.572C20.6589 374.661 20.5797 374.752 20.5006 374.842C20.5797 374.752 20.6589 374.661 20.739 374.572ZM83.4229 374.477C83.3235 374.373 83.2236 374.269 83.1232 374.165C83.2236 374.269 83.3235 374.373 83.4229 374.477ZM21.1181 374.154C21.0543 374.223 20.9909 374.293 20.9276 374.362C20.9909 374.293 21.0543 374.223 21.1181 374.154ZM82.9075 373.944C82.8249 373.861 82.7415 373.778 82.6582 373.694C82.7415 373.778 82.8249 373.861 82.9075 373.944ZM21.5225 373.723C21.4651 373.783 21.4076 373.843 21.3507 373.904C21.4076 373.843 21.4651 373.783 21.5225 373.723ZM21.9772 373.255C21.8993 373.334 21.8218 373.413 21.7447 373.492C21.8218 373.413 21.8993 373.334 21.9772 373.255ZM82.3869 373.425C82.301 373.341 82.2144 373.258 82.1278 373.174C82.2144 373.258 82.301 373.341 82.3869 373.425ZM22.4178 372.818C22.3234 372.91 22.2293 373.002 22.1361 373.095C22.2293 373.002 22.3234 372.91 22.4178 372.818ZM81.8682 372.926C81.7981 372.86 81.7275 372.794 81.657 372.729C81.7275 372.794 81.7981 372.86 81.8682 372.926ZM22.8383 372.414C22.7451 372.502 22.6526 372.59 22.5605 372.679C22.6526 372.59 22.7451 372.502 22.8383 372.414ZM81.3514 372.446C81.2757 372.377 81.1991 372.308 81.1228 372.24C81.1991 372.308 81.2757 372.377 81.3514 372.446ZM23.2652 372.016C23.1861 372.089 23.1078 372.162 23.0295 372.235C23.1077 372.162 23.1861 372.089 23.2652 372.016ZM80.834 371.981C80.7411 371.899 80.6474 371.818 80.5537 371.737C80.6474 371.818 80.7411 371.899 80.834 371.981ZM23.7426 371.587C23.6518 371.668 23.5611 371.748 23.4713 371.829C23.5611 371.748 23.6518 371.668 23.7426 371.587ZM80.3147 371.531C80.2052 371.437 80.0945 371.345 79.984 371.253C80.0945 371.345 80.2052 371.437 80.3147 371.531ZM24.1611 371.222C24.0877 371.285 24.0143 371.348 23.9415 371.412C24.0143 371.348 24.0877 371.285 24.1611 371.222ZM79.7728 371.077C79.6535 370.979 79.5334 370.882 79.413 370.785C79.5334 370.882 79.6535 370.979 79.7728 371.077ZM24.6101 370.843C24.5445 370.898 24.4787 370.952 24.4137 371.007C24.4787 370.952 24.5445 370.898 24.6101 370.843ZM79.2263 370.635C79.1037 370.537 78.9799 370.441 78.8562 370.345C78.9799 370.441 79.1037 370.537 79.2263 370.635ZM25.1707 370.386C25.0706 370.466 24.9707 370.546 24.8717 370.627C24.9707 370.546 25.0706 370.466 25.1707 370.386ZM25.6164 370.035C25.5185 370.111 25.4207 370.186 25.3238 370.263C25.4207 370.186 25.5185 370.111 25.6164 370.035ZM78.6514 370.186C78.5297 370.093 78.4068 370.001 78.2839 369.909C78.4068 370.001 78.5297 370.093 78.6514 370.186ZM26.0518 369.701C25.9861 369.75 25.9207 369.8 25.8554 369.85C25.9207 369.8 25.9861 369.75 26.0518 369.701ZM78.074 369.752C77.9343 369.648 77.7933 369.547 77.6522 369.445C77.7933 369.547 77.9343 369.648 78.074 369.752ZM26.5815 369.309C26.5026 369.366 26.4232 369.422 26.345 369.48C26.4232 369.422 26.5026 369.366 26.5815 369.309ZM77.521 369.351C77.3772 369.248 77.2323 369.147 77.087 369.046C77.2323 369.147 77.3772 369.248 77.521 369.351ZM27.1434 368.906C27.0453 368.975 26.9467 369.043 26.8495 369.113C26.9467 369.043 27.0453 368.975 27.1434 368.906ZM76.9223 368.931C76.7876 368.838 76.6513 368.748 76.5153 368.657C76.6513 368.748 76.7876 368.838 76.9223 368.931ZM27.6744 368.538C27.566 368.612 27.458 368.686 27.3508 368.76C27.458 368.686 27.566 368.612 27.6744 368.538ZM76.3203 368.526C76.1554 368.417 75.9895 368.309 75.8229 368.202C75.9895 368.309 76.1554 368.417 76.3203 368.526ZM28.3914 368.059C28.2177 368.172 28.0456 368.287 27.8746 368.402C28.0456 368.287 28.2177 368.172 28.3914 368.059ZM75.1104 367.754C75.3117 367.878 75.5119 368.003 75.7105 368.129C75.5118 368.002 75.3118 367.877 75.1104 367.754L74.4832 367.377L75.1104 367.754ZM30.6282 366.694L30.0546 367.028C29.6809 367.248 29.3126 367.473 28.9501 367.701C29.4966 367.357 30.0561 367.022 30.6282 366.695C30.821 366.585 31.0145 366.476 31.2089 366.37L30.6282 366.694ZM73.5976 366.87C73.4711 366.799 73.345 366.728 73.2178 366.659C73.345 366.728 73.4711 366.799 73.5976 366.87ZM72.9614 366.522C72.837 366.455 72.713 366.388 72.5881 366.322C72.713 366.388 72.837 366.455 72.9614 366.522ZM72.1824 366.114C72.1144 366.08 72.0471 366.044 71.9789 366.01C72.0471 366.044 72.1144 366.08 72.1824 366.114ZM32.9807 365.456C32.582 365.649 32.1868 365.849 31.7948 366.055L32.3852 365.751C32.7808 365.551 33.1798 365.358 33.5821 365.173L32.9807 365.456ZM71.5164 365.782C71.4554 365.753 71.3948 365.722 71.3337 365.693C71.3948 365.722 71.4554 365.753 71.5164 365.782ZM70.8318 365.456C70.7852 365.435 70.7389 365.412 70.6922 365.391C70.7389 365.412 70.7852 365.435 70.8318 365.456ZM70.3086 365.218C70.2074 365.172 70.1065 365.127 70.005 365.082C70.1065 365.127 70.2074 365.172 70.3086 365.218ZM69.713 364.956C69.5919 364.904 69.4709 364.852 69.3493 364.801C69.4709 364.852 69.5919 364.904 69.713 364.956ZM69.0787 364.689C68.94 364.633 68.8014 364.576 68.6621 364.52C68.8014 364.576 68.94 364.633 69.0787 364.689ZM68.4089 364.421C68.2786 364.371 68.1483 364.32 68.0174 364.27C68.1483 364.32 68.2786 364.371 68.4089 364.421ZM67.6628 364.138C67.5673 364.103 67.4718 364.068 67.376 364.033C67.4718 364.068 67.5673 364.103 67.6628 364.138ZM37.2917 363.686C37.0804 363.759 36.8701 363.833 36.6606 363.909L37.2917 363.687C37.5027 363.615 37.7145 363.544 37.9273 363.475L37.2917 363.686ZM66.9826 363.894C66.8873 363.861 66.7921 363.827 66.6965 363.795C66.7921 363.827 66.8873 363.861 66.9826 363.894ZM66.2747 363.654C66.1883 363.626 66.1017 363.597 66.015 363.569C66.1017 363.597 66.1883 363.626 66.2747 363.654ZM65.6288 363.447C65.5245 363.414 65.4201 363.382 65.3155 363.35C65.4201 363.382 65.5245 363.414 65.6288 363.447ZM64.9467 363.241C64.8367 363.208 64.7269 363.176 64.6166 363.144C64.7269 363.176 64.8367 363.208 64.9467 363.241ZM64.273 363.049C64.1472 363.014 64.0213 362.98 63.8951 362.946C64.0213 362.98 64.1472 363.014 64.273 363.049ZM63.5476 362.856C63.451 362.831 63.3544 362.806 63.2575 362.782C63.3544 362.806 63.451 362.831 63.5476 362.856ZM62.8041 362.671C62.7308 362.653 62.6573 362.636 62.5838 362.619C62.6573 362.636 62.7308 362.653 62.8041 362.671ZM62.0929 362.507C62.0155 362.49 61.938 362.474 61.8604 362.457C61.938 362.474 62.0155 362.49 62.0929 362.507ZM61.4057 362.362C61.3059 362.341 61.2059 362.322 61.1059 362.302C61.2059 362.322 61.3059 362.341 61.4057 362.362ZM60.6964 362.223C60.596 362.204 60.4954 362.186 60.3948 362.168C60.4954 362.186 60.596 362.204 60.6964 362.223ZM59.9872 362.095C59.8596 362.074 59.7316 362.053 59.6035 362.032C59.7316 362.053 59.8596 362.074 59.9872 362.095ZM59.2683 361.978C59.1593 361.962 59.0501 361.945 58.9408 361.929C59.0501 361.945 59.1593 361.962 59.2683 361.978ZM58.4867 361.864C58.4101 361.854 58.3334 361.844 58.2567 361.834C58.3334 361.844 58.4101 361.854 58.4867 361.864ZM57.7865 361.773C57.6702 361.759 57.5537 361.746 57.437 361.733C57.5537 361.746 57.6702 361.759 57.7865 361.773ZM57.032 361.688C56.9057 361.674 56.779 361.662 56.6522 361.65C56.779 361.662 56.9057 361.674 57.032 361.688ZM56.3157 361.617C56.2033 361.607 56.0906 361.598 55.9779 361.588C56.0906 361.598 56.2033 361.607 56.3157 361.617ZM54.7577 361.5C54.742 361.5 54.7263 361.499 54.7106 361.498C54.7263 361.499 54.742 361.5 54.7577 361.5ZM54.0117 361.462C53.9364 361.458 53.861 361.456 53.7856 361.453C53.861 361.456 53.9364 361.458 54.0117 361.462ZM75.1524 451.226C75.2924 451.138 75.4323 451.05 75.571 450.961C75.4323 451.05 75.2924 451.138 75.1524 451.226ZM34.3249 441.088C34.4635 441.154 34.6023 441.219 34.7415 441.284C34.6023 441.219 34.4635 441.154 34.3249 441.088ZM30.4952 438.849C30.5996 438.922 30.7043 438.995 30.8097 439.067C30.7043 438.995 30.5996 438.922 30.4952 438.849ZM89.2984 436.536C89.4214 436.326 89.5429 436.115 89.6633 435.903C89.5429 436.115 89.4214 436.326 89.2984 436.536ZM91.5372 432.242C91.617 432.069 91.697 431.895 91.7749 431.72C91.697 431.895 91.617 432.069 91.5372 432.242ZM73.5208 431.977C73.599 431.871 73.6768 431.765 73.754 431.659C73.6768 431.765 73.599 431.871 73.5208 431.977ZM74.9606 429.868C74.95 429.885 74.9389 429.902 74.9283 429.918C74.9389 429.902 74.95 429.885 74.9606 429.868ZM16.8757 379.827L16.5811 380.329C16.6796 380.158 16.7795 379.987 16.8808 379.818C16.879 379.821 16.8774 379.824 16.8757 379.827ZM63.9384 378.722C63.803 378.648 63.667 378.575 63.5308 378.503C63.667 378.575 63.803 378.648 63.9384 378.722ZM28.8674 367.754C28.7078 367.855 28.5488 367.957 28.3914 368.059C28.5488 367.957 28.7078 367.855 28.8674 367.754Z" fill="white"/>
<path d="M388.924 341.29H352.98V458.941H333.78V341.29H297.646V325.331H388.924V341.29Z" fill="white"/>
<path d="M261 0C337.768 0 400 62.2324 400 139C400 215.768 337.768 278 261 278C184.232 278 122 215.768 122 139C122 62.2324 184.232 0 261 0ZM261 13.5615C191.722 13.5615 135.561 69.7223 135.561 139L135.602 142.237C137.292 208.943 191.056 262.708 257.762 264.398L261 264.439C329.195 264.439 384.68 210.019 386.397 142.237L386.438 139C386.438 70.8049 332.019 15.319 264.237 13.6016L261 13.5615ZM261 17.7998C327.937 17.8002 382.2 72.063 382.2 139C382.2 205.937 327.937 260.201 261 260.201C194.063 260.201 139.799 205.937 139.799 139C139.799 72.0627 194.063 17.7998 261 17.7998ZM229.156 207.83L234.522 231.072L257.783 225.702L252.418 202.46L229.156 207.83ZM293.574 168.479L270.312 173.849L247.052 179.219L252.418 202.46L275.679 197.09L281.044 220.332L304.306 214.961L298.939 191.72L322.2 186.35L316.835 163.108L293.574 168.479ZM243.484 57.6416L248.85 80.8828L225.589 86.2529L220.224 63.0117L196.962 68.3818L202.328 91.623L179.066 96.9941L189.799 143.477L200.529 189.959L205.896 213.201L229.156 207.83L223.791 184.589L218.425 161.348L213.06 138.106L207.693 114.865L230.955 109.495L254.216 104.124L300.737 93.3838L295.372 70.1426L272.111 75.5127L266.745 52.2715L243.484 57.6416ZM311.469 139.866L316.835 163.108L340.097 157.738L334.73 134.496L311.469 139.866ZM282.843 121.996L259.581 127.366L236.32 132.736L241.687 155.978L288.208 145.237L311.469 139.866L306.104 116.626L282.843 121.996ZM300.737 93.3838L306.104 116.626L329.365 111.255L323.999 88.0137L300.737 93.3838Z" fill="white"/>
</svg>
