<svg width="95" height="120" viewBox="0 0 95 120" fill="none" xmlns="http://www.w3.org/2000/svg">
<path d="M68.2924 41.597H78.5927V51.9993H68.2924V62.3654H57.9498V72.677H47.5045V62.462H37.2404V72.6347H26.7348V62.3654H16.4707V10.4144H26.6744V0H37.1318V10.4144C40.5129 10.4144 43.7189 10.4144 46.931 10.4144C47.055 10.3793 47.1676 10.3124 47.2577 10.2201C47.3477 10.1279 47.4121 10.0137 47.4442 9.88882C47.4442 6.6147 47.4442 3.34057 47.3838 0.0604118H57.8411C57.8411 3.17143 57.9075 6.2764 57.8834 9.38138C57.8834 10.1969 58.0766 10.4808 58.9339 10.4627C61.6449 10.4144 64.3679 10.4627 67.0728 10.4627H68.2441V20.7744H78.5867V31.1948H68.2924V20.9798H26.9039V62.2627H37.168V51.9148H68.2622C68.2622 51.3952 68.2622 51.0026 68.2622 50.6039C68.2622 47.5956 68.2843 44.5872 68.3286 41.5789L68.2924 41.597Z" fill="white"/>
<path d="M68.2915 31.1162V41.5789H37.1973V31.1585H68.2915V31.1162Z" fill="white"/>
<path d="M94.916 119.956H89.9395V95.0077H94.916V119.956Z" fill="white"/>
<path d="M94.916 90.0409H89.9395V85.0293H94.916V90.0409Z" fill="white"/>
<path d="M0 84.9764H19.7068C24.7524 84.9764 28.7694 88.1941 29.7777 93.1121C30.0586 94.4574 30.0501 95.847 29.7529 97.1887C29.4557 98.5304 28.8765 99.7935 28.0538 100.894C27.9359 101.061 27.822 101.232 27.7936 101.268C28.7612 102.269 29.8265 103.131 30.5827 104.189C34.9127 110.075 31.4528 118.577 24.2482 119.826C23.6938 119.924 23.1321 119.976 22.5691 119.98C15.2507 119.98 7.93231 119.98 0.613928 119.98C0.430969 119.98 0.248012 119.98 0.0325269 119.952L0 84.9764ZM5.00089 114.932C5.19198 114.932 5.31395 114.957 5.43593 114.957H22.691C22.8992 114.961 23.1073 114.948 23.3131 114.916C25.777 114.464 27.6472 112.125 27.4398 109.766C27.1918 106.975 25.1346 105.023 22.4186 105.023C16.8323 105.023 11.2486 105.023 5.66768 105.023H5.00089V114.932ZM5.00089 99.9299C5.05816 99.9566 5.11814 99.977 5.17979 99.9909C10.1603 99.9909 15.1409 100.06 20.1174 99.9909C20.822 99.9825 21.5165 99.8216 22.153 99.5191C22.7895 99.2166 23.353 98.7797 23.8047 98.2385C24.2563 97.6973 24.5855 97.0647 24.7694 96.3841C24.9534 95.7035 24.9878 94.9911 24.8703 94.2959C24.4637 91.7047 22.4552 90.0165 19.7434 90.0084C15.0352 90.0084 10.327 90.0084 5.62295 90.0084H5.00089V99.9299Z" fill="white"/>
<path d="M67.4316 101.569V119.952H62.4551V85.0293H86.1463V90.0002H67.4682V96.5617H86.1463V101.577L67.4316 101.569Z" fill="white"/>
<path d="M58.6639 101.569H53.7402C53.7402 101.813 53.7118 101.996 53.7118 102.179V113.463C53.7118 114.566 54.1184 114.952 55.2324 114.956H57.2409C57.3007 114.966 57.3593 114.983 57.4157 115.005V119.887C54.1224 120.208 51.4837 120.033 49.5037 116.828C48.9616 115.952 48.6795 114.941 48.6906 113.911C48.6906 110.36 48.6906 105.865 48.6906 102.314V101.581H44.9785V96.5656H48.6702V84.9641H53.6793V96.5168H58.6557L58.6639 101.569Z" fill="white"/>
<path d="M41.153 119.956H36.209V95.0321H41.153V119.956Z" fill="white"/>
<path d="M36.2207 85.0293H41.1484V89.9839H36.2207V85.0293Z" fill="white"/>
</svg>
