<svg width="238" height="278" viewBox="0 0 238 278" fill="none" xmlns="http://www.w3.org/2000/svg">
<path d="M198.225 159.115H237.626V198.905H198.225V238.556H158.663V278H118.709V238.926H79.4472V277.838H39.2617V238.556H0V39.8364H39.0307V0H79.0315V39.8364C91.9647 39.8364 104.228 39.8364 116.515 39.8364C116.989 39.7024 117.42 39.4463 117.765 39.0935C118.109 38.7407 118.355 38.3037 118.478 37.8261C118.478 25.3022 118.478 12.7782 118.247 0.231084H158.248C158.248 12.1312 158.502 24.0081 158.409 35.8851C158.409 39.0046 159.148 40.0906 162.428 40.0213C172.798 39.8364 183.214 40.0213 193.56 40.0213H198.041V79.4649H237.603V119.324H198.225V80.2505H39.9084V238.164H79.17V198.581H198.11C198.11 196.594 198.11 195.092 198.11 193.567C198.11 182.06 198.195 170.553 198.364 159.045L198.225 159.115Z" fill="#0A4846"/>
<path d="M198.226 119.024V159.046H79.2864V119.186H198.226V119.024Z" fill="#0A4846"/>
</svg>
