<svg width="150" height="150" viewBox="0 0 150 150" fill="none" xmlns="http://www.w3.org/2000/svg">
<rect width="150" height="150" fill="white"/>
<path d="M97.6363 80.7884H108.867V92.2388H97.6363V103.649H86.3597V115H74.9711V103.756H63.7801V114.953H52.3258V103.649H41.1348V46.4637H52.26V35H63.6616V46.4637C67.3481 46.4637 70.8436 46.4637 74.3458 46.4637C74.481 46.4252 74.6038 46.3514 74.702 46.2499C74.8002 46.1484 74.8703 46.0227 74.9053 45.8852C74.9053 42.2812 74.9053 38.6772 74.8395 35.0665H86.2412C86.2412 38.491 86.3136 41.9088 86.2872 45.3267C86.2872 46.2243 86.4979 46.5369 87.4327 46.5169C90.3884 46.4637 93.3573 46.5169 96.3065 46.5169H97.5836V57.8676H108.86V69.338H97.6363V58.0937H52.5101V103.536H63.7011V92.1457H97.6033C97.6033 91.5739 97.6033 91.1416 97.6033 90.7028C97.6033 87.3913 97.6275 84.0799 97.6758 80.7684L97.6363 80.7884Z" fill="black"/>
<path d="M97.6346 69.2515V80.7684H63.7324V69.298H97.6346V69.2515Z" fill="black"/>
</svg>
