<svg width="842" height="278" viewBox="0 0 842 278" fill="none" xmlns="http://www.w3.org/2000/svg">
<path d="M198.225 159.115H237.626V198.905H198.225V238.556H158.663V278H118.709V238.926H79.4472V277.838H39.2617V238.556H0V39.8364H39.0307V0H79.0315V39.8364C91.9647 39.8364 104.228 39.8364 116.515 39.8364C116.989 39.7024 117.42 39.4463 117.765 39.0935C118.109 38.7407 118.355 38.3037 118.478 37.8261C118.478 25.3022 118.478 12.7782 118.247 0.231084H158.248C158.248 12.1312 158.502 24.0081 158.409 35.8851C158.409 39.0046 159.148 40.0906 162.428 40.0213C172.798 39.8364 183.214 40.0213 193.56 40.0213H198.041V79.4649H237.603V119.324H198.225V80.2505H39.9084V238.164H79.17V198.581H198.11C198.11 196.594 198.11 195.092 198.11 193.567C198.11 182.06 198.195 170.553 198.364 159.045L198.225 159.115Z" fill="#0A4846"/>
<path d="M198.226 119.024V159.046H79.2864V119.186H198.226V119.024Z" fill="#0A4846"/>
<path d="M842 238.233H813.731V96.5176H842V238.233Z" fill="#0A4846"/>
<path d="M842 68.3047H813.731V39.8369H842V68.3047Z" fill="#0A4846"/>
<path d="M302.845 39.5366H414.787C443.448 39.5366 466.266 57.8142 471.993 85.7506C473.589 93.3919 473.541 101.286 471.853 108.907C470.164 116.528 466.874 123.703 462.201 129.954C461.531 130.902 460.885 131.872 460.723 132.08C466.22 137.764 472.27 142.663 476.566 148.671C501.162 182.107 481.509 230.4 440.584 237.494C437.435 238.052 434.244 238.346 431.046 238.372C389.475 238.372 347.903 238.372 306.332 238.372C305.293 238.372 304.254 238.372 303.029 238.21L302.845 39.5366ZM331.252 209.696C332.337 209.696 333.03 209.835 333.723 209.835H431.739C432.921 209.862 434.103 209.785 435.272 209.604C449.268 207.039 459.891 193.753 458.714 180.351C457.305 164.499 445.619 153.408 430.191 153.408C398.459 153.408 366.741 153.408 335.039 153.408H331.252V209.696ZM331.252 124.478C331.577 124.63 331.918 124.746 332.268 124.824C360.559 124.824 388.851 125.217 417.119 124.824C421.122 124.777 425.067 123.863 428.682 122.144C432.298 120.426 435.499 117.944 438.064 114.87C440.63 111.796 442.5 108.202 443.545 104.336C444.589 100.47 444.785 96.4236 444.118 92.4747C441.808 77.7556 430.399 68.1662 414.995 68.12C388.25 68.12 361.506 68.12 334.785 68.12H331.252V124.478Z" fill="#0A4846"/>
<path d="M685.877 133.79V238.21H657.608V39.8369H792.183V68.0736H686.084V105.345H792.183V133.836L685.877 133.79Z" fill="#0A4846"/>
<path d="M636.084 133.789H608.116C608.116 135.176 607.954 136.216 607.954 137.256V201.354C607.954 207.616 610.264 209.811 616.592 209.835H628.001C628.341 209.891 628.673 209.984 628.994 210.112V237.84C610.287 239.666 595.298 238.672 584.051 220.464C580.971 215.492 579.369 209.745 579.432 203.896C579.432 183.724 579.432 158.19 579.432 138.018V133.859H558.346V105.368H579.316V39.4668H607.769V105.091H636.038L636.084 133.789Z" fill="#0A4846"/>
<path d="M536.612 238.233H508.529V96.6567H536.612V238.233Z" fill="#0A4846"/>
<path d="M508.598 39.8369H536.589V67.9812H508.598V39.8369Z" fill="#0A4846"/>
</svg>
